<svg viewBox="0 0 400 400" xmlns="http://www.w3.org/2000/svg">
  <defs>
    <radialGradient id="exp_purple" cx="50%" cy="50%" r="50%">
      <stop offset="0%" stop-color="#CC44FF" stop-opacity="1"/>
      <stop offset="40%" stop-color="#8800FF" stop-opacity="0.8"/>
      <stop offset="100%" stop-color="#440088" stop-opacity="0"/>
    </radialGradient>
  </defs>
  <line x1="200" y1="200" x2="360" y2="200" stroke="#DDAAFF" stroke-width="4" opacity="0.8"/><line x1="200" y1="200" x2="350" y2="254" stroke="#DDAAFF" stroke-width="2" opacity="0.3"/><line x1="200" y1="200" x2="322" y2="302" stroke="#DDAAFF" stroke-width="2" opacity="0.8"/><line x1="200" y1="200" x2="280" y2="338" stroke="#DDAAFF" stroke-width="4" opacity="0.3"/><line x1="200" y1="200" x2="227" y2="357" stroke="#DDAAFF" stroke-width="2" opacity="0.8"/><line x1="200" y1="200" x2="172" y2="357" stroke="#DDAAFF" stroke-width="2" opacity="0.3"/><line x1="200" y1="200" x2="120" y2="338" stroke="#DDAAFF" stroke-width="4" opacity="0.8"/><line x1="200" y1="200" x2="77" y2="302" stroke="#DDAAFF" stroke-width="2" opacity="0.3"/><line x1="200" y1="200" x2="49" y2="254" stroke="#DDAAFF" stroke-width="2" opacity="0.8"/><line x1="200" y1="200" x2="40" y2="200" stroke="#DDAAFF" stroke-width="4" opacity="0.3"/><line x1="200" y1="200" x2="49" y2="145" stroke="#DDAAFF" stroke-width="2" opacity="0.8"/><line x1="200" y1="200" x2="77" y2="97" stroke="#DDAAFF" stroke-width="2" opacity="0.3"/><line x1="200" y1="200" x2="119" y2="61" stroke="#DDAAFF" stroke-width="4" opacity="0.8"/><line x1="200" y1="200" x2="172" y2="42" stroke="#DDAAFF" stroke-width="2" opacity="0.3"/><line x1="200" y1="200" x2="227" y2="42" stroke="#DDAAFF" stroke-width="2" opacity="0.8"/><line x1="200" y1="200" x2="280" y2="61" stroke="#DDAAFF" stroke-width="4" opacity="0.3"/><line x1="200" y1="200" x2="322" y2="97" stroke="#DDAAFF" stroke-width="2" opacity="0.8"/><line x1="200" y1="200" x2="350" y2="145" stroke="#DDAAFF" stroke-width="2" opacity="0.3"/>
  <polygon points="277,200 303,212 281,206" fill="#CC44FF" opacity="0.6"/><polygon points="285,220 294,238 272,229" fill="#CC44FF" opacity="0.7"/><polygon points="262,235 269,256 264,244" fill="#CC44FF" opacity="0.6"/><polygon points="260,265 258,287 247,268" fill="#CC44FF" opacity="0.6"/><polygon points="238,269 240,295 239,271" fill="#CC44FF" opacity="0.7"/><polygon points="224,277 210,307 213,276" fill="#CC44FF" opacity="0.7"/><polygon points="200,270 186,297 193,274" fill="#CC44FF" opacity="0.6"/><polygon points="183,274 157,303 174,286" fill="#CC44FF" opacity="0.7"/><polygon points="160,276 139,281 151,265" fill="#CC44FF" opacity="0.8"/><polygon points="131,265 122,263 138,250" fill="#CC44FF" opacity="0.7"/><polygon points="135,233 110,232 128,232" fill="#CC44FF" opacity="0.6"/><polygon points="139,216 100,212 129,215" fill="#CC44FF" opacity="0.8"/><polygon points="117,200 92,185 116,194" fill="#CC44FF" opacity="0.9"/><polygon points="117,179 97,163 126,174" fill="#CC44FF" opacity="0.8"/><polygon points="145,152 119,137 140,154" fill="#CC44FF" opacity="0.6"/><polygon points="141,134 144,114 150,143" fill="#CC44FF" opacity="0.5"/><polygon points="169,137 157,94 163,120" fill="#CC44FF" opacity="0.7"/><polygon points="177,136 189,112 183,119" fill="#CC44FF" opacity="0.6"/><polygon points="199,119 213,103 205,128" fill="#CC44FF" opacity="0.7"/><polygon points="224,134 234,97 229,113" fill="#CC44FF" opacity="0.6"/><polygon points="231,145 256,113 244,126" fill="#CC44FF" opacity="0.7"/><polygon points="266,138 290,135 267,152" fill="#CC44FF" opacity="0.9"/><polygon points="280,162 303,166 279,165" fill="#CC44FF" opacity="0.7"/><polygon points="278,181 299,187 274,183" fill="#CC44FF" opacity="0.7"/>
  <circle cx="200" cy="200" r="100" fill="url(#exp_purple)" opacity="0.85"/>
  <circle cx="200" cy="200" r="60" fill="#CC44FF" opacity="0.7"/>
  <circle cx="200" cy="200" r="28" fill="white" opacity="0.7"/>
  <circle cx="182" cy="182" r="12" fill="white" opacity="0.6"/>
  <text x="200" y="210" text-anchor="middle" font-size="22" font-weight="bold" fill="white" font-family="Arial Black,sans-serif" opacity="0.9">FINAL</text>
</svg>