<svg viewBox="0 0 400 400" xmlns="http://www.w3.org/2000/svg">
  <defs>
    <radialGradient id="exp_blue" cx="50%" cy="50%" r="50%">
      <stop offset="0%" stop-color="#44AAFF" stop-opacity="1"/>
      <stop offset="40%" stop-color="#0055FF" stop-opacity="0.8"/>
      <stop offset="100%" stop-color="#002288" stop-opacity="0"/>
    </radialGradient>
  </defs>
  <line x1="200" y1="200" x2="360" y2="200" stroke="#AACCFF" stroke-width="4" opacity="0.8"/><line x1="200" y1="200" x2="350" y2="254" stroke="#AACCFF" stroke-width="2" opacity="0.3"/><line x1="200" y1="200" x2="322" y2="302" stroke="#AACCFF" stroke-width="2" opacity="0.8"/><line x1="200" y1="200" x2="280" y2="338" stroke="#AACCFF" stroke-width="4" opacity="0.3"/><line x1="200" y1="200" x2="227" y2="357" stroke="#AACCFF" stroke-width="2" opacity="0.8"/><line x1="200" y1="200" x2="172" y2="357" stroke="#AACCFF" stroke-width="2" opacity="0.3"/><line x1="200" y1="200" x2="120" y2="338" stroke="#AACCFF" stroke-width="4" opacity="0.8"/><line x1="200" y1="200" x2="77" y2="302" stroke="#AACCFF" stroke-width="2" opacity="0.3"/><line x1="200" y1="200" x2="49" y2="254" stroke="#AACCFF" stroke-width="2" opacity="0.8"/><line x1="200" y1="200" x2="40" y2="200" stroke="#AACCFF" stroke-width="4" opacity="0.3"/><line x1="200" y1="200" x2="49" y2="145" stroke="#AACCFF" stroke-width="2" opacity="0.8"/><line x1="200" y1="200" x2="77" y2="97" stroke="#AACCFF" stroke-width="2" opacity="0.3"/><line x1="200" y1="200" x2="119" y2="61" stroke="#AACCFF" stroke-width="4" opacity="0.8"/><line x1="200" y1="200" x2="172" y2="42" stroke="#AACCFF" stroke-width="2" opacity="0.3"/><line x1="200" y1="200" x2="227" y2="42" stroke="#AACCFF" stroke-width="2" opacity="0.8"/><line x1="200" y1="200" x2="280" y2="61" stroke="#AACCFF" stroke-width="4" opacity="0.3"/><line x1="200" y1="200" x2="322" y2="97" stroke="#AACCFF" stroke-width="2" opacity="0.8"/><line x1="200" y1="200" x2="350" y2="145" stroke="#AACCFF" stroke-width="2" opacity="0.3"/>
  <polygon points="276,200 286,214 287,205" fill="#44AAFF" opacity="0.6"/><polygon points="276,218 298,240 284,229" fill="#44AAFF" opacity="0.6"/><polygon points="253,246 272,267 262,250" fill="#44AAFF" opacity="0.6"/><polygon points="250,254 258,282 248,260" fill="#44AAFF" opacity="0.7"/><polygon points="249,255 241,304 232,264" fill="#44AAFF" opacity="0.8"/><polygon points="223,276 213,297 217,278" fill="#44AAFF" opacity="0.6"/><polygon points="200,273 186,303 193,280" fill="#44AAFF" opacity="0.9"/><polygon points="176,268 164,287 172,280" fill="#44AAFF" opacity="0.6"/><polygon points="169,280 137,281 149,260" fill="#44AAFF" opacity="0.7"/><polygon points="154,260 114,257 131,251" fill="#44AAFF" opacity="0.8"/><polygon points="128,239 98,238 133,232" fill="#44AAFF" opacity="0.7"/><polygon points="110,223 96,210 129,214" fill="#44AAFF" opacity="0.8"/><polygon points="114,200 100,184 122,194" fill="#44AAFF" opacity="0.8"/><polygon points="127,176 97,155 127,175" fill="#44AAFF" opacity="0.8"/><polygon points="144,165 124,137 135,151" fill="#44AAFF" opacity="0.6"/><polygon points="137,137 146,114 145,133" fill="#44AAFF" opacity="0.6"/><polygon points="166,144 167,120 160,120" fill="#44AAFF" opacity="0.9"/><polygon points="179,107 188,105 184,124" fill="#44AAFF" opacity="0.6"/><polygon points="200,126 212,92 205,122" fill="#44AAFF" opacity="0.6"/><polygon points="216,106 235,115 225,123" fill="#44AAFF" opacity="0.7"/><polygon points="247,122 266,131 245,129" fill="#44AAFF" opacity="0.8"/><polygon points="248,146 271,141 259,151" fill="#44AAFF" opacity="0.7"/><polygon points="266,161 281,164 273,164" fill="#44AAFF" opacity="0.8"/><polygon points="289,174 299,186 289,182" fill="#44AAFF" opacity="0.6"/>
  <circle cx="200" cy="200" r="100" fill="url(#exp_blue)" opacity="0.85"/>
  <circle cx="200" cy="200" r="60" fill="#44AAFF" opacity="0.7"/>
  <circle cx="200" cy="200" r="28" fill="white" opacity="0.7"/>
  <circle cx="182" cy="182" r="12" fill="white" opacity="0.6"/>
  <text x="200" y="210" text-anchor="middle" font-size="22" font-weight="bold" fill="white" font-family="Arial Black,sans-serif" opacity="0.9">KI</text>
</svg>