<svg viewBox="0 0 400 400" xmlns="http://www.w3.org/2000/svg">
  <defs>
    <radialGradient id="exp_white" cx="50%" cy="50%" r="50%">
      <stop offset="0%" stop-color="#DDDDFF" stop-opacity="1"/>
      <stop offset="40%" stop-color="#FFFFFF" stop-opacity="0.8"/>
      <stop offset="100%" stop-color="#8888AA" stop-opacity="0"/>
    </radialGradient>
  </defs>
  <line x1="200" y1="200" x2="360" y2="200" stroke="#FFFFFF" stroke-width="4" opacity="0.8"/><line x1="200" y1="200" x2="350" y2="254" stroke="#FFFFFF" stroke-width="2" opacity="0.3"/><line x1="200" y1="200" x2="322" y2="302" stroke="#FFFFFF" stroke-width="2" opacity="0.8"/><line x1="200" y1="200" x2="280" y2="338" stroke="#FFFFFF" stroke-width="4" opacity="0.3"/><line x1="200" y1="200" x2="227" y2="357" stroke="#FFFFFF" stroke-width="2" opacity="0.8"/><line x1="200" y1="200" x2="172" y2="357" stroke="#FFFFFF" stroke-width="2" opacity="0.3"/><line x1="200" y1="200" x2="120" y2="338" stroke="#FFFFFF" stroke-width="4" opacity="0.8"/><line x1="200" y1="200" x2="77" y2="302" stroke="#FFFFFF" stroke-width="2" opacity="0.3"/><line x1="200" y1="200" x2="49" y2="254" stroke="#FFFFFF" stroke-width="2" opacity="0.8"/><line x1="200" y1="200" x2="40" y2="200" stroke="#FFFFFF" stroke-width="4" opacity="0.3"/><line x1="200" y1="200" x2="49" y2="145" stroke="#FFFFFF" stroke-width="2" opacity="0.8"/><line x1="200" y1="200" x2="77" y2="97" stroke="#FFFFFF" stroke-width="2" opacity="0.3"/><line x1="200" y1="200" x2="119" y2="61" stroke="#FFFFFF" stroke-width="4" opacity="0.8"/><line x1="200" y1="200" x2="172" y2="42" stroke="#FFFFFF" stroke-width="2" opacity="0.3"/><line x1="200" y1="200" x2="227" y2="42" stroke="#FFFFFF" stroke-width="2" opacity="0.8"/><line x1="200" y1="200" x2="280" y2="61" stroke="#FFFFFF" stroke-width="4" opacity="0.3"/><line x1="200" y1="200" x2="322" y2="97" stroke="#FFFFFF" stroke-width="2" opacity="0.8"/><line x1="200" y1="200" x2="350" y2="145" stroke="#FFFFFF" stroke-width="2" opacity="0.3"/>
  <polygon points="292,200 304,212 281,205" fill="#DDDDFF" opacity="0.9"/><polygon points="268,218 288,244 283,227" fill="#DDDDFF" opacity="0.7"/><polygon points="277,230 275,254 265,241" fill="#DDDDFF" opacity="0.5"/><polygon points="265,242 260,285 251,264" fill="#DDDDFF" opacity="0.7"/><polygon points="243,286 235,279 238,264" fill="#DDDDFF" opacity="0.8"/><polygon points="219,263 211,290 216,271" fill="#DDDDFF" opacity="0.6"/><polygon points="200,291 186,302 194,271" fill="#DDDDFF" opacity="0.8"/><polygon points="184,287 166,281 176,269" fill="#DDDDFF" opacity="0.6"/><polygon points="161,285 140,271 155,276" fill="#DDDDFF" opacity="0.7"/><polygon points="140,268 129,268 136,259" fill="#DDDDFF" opacity="0.8"/><polygon points="114,247 102,237 128,231" fill="#DDDDFF" opacity="0.9"/><polygon points="127,224 87,211 115,214" fill="#DDDDFF" opacity="0.8"/><polygon points="113,200 99,184 117,193" fill="#DDDDFF" opacity="0.5"/><polygon points="124,177 107,158 128,170" fill="#DDDDFF" opacity="0.5"/><polygon points="120,158 118,142 125,150" fill="#DDDDFF" opacity="0.8"/><polygon points="137,145 148,121 144,135" fill="#DDDDFF" opacity="0.6"/><polygon points="161,118 167,117 161,120" fill="#DDDDFF" opacity="0.7"/><polygon points="181,112 188,94 183,110" fill="#DDDDFF" opacity="0.6"/><polygon points="199,109 215,110 205,116" fill="#DDDDFF" opacity="0.7"/><polygon points="217,131 242,99 226,117" fill="#DDDDFF" opacity="0.8"/><polygon points="236,132 258,131 240,140" fill="#DDDDFF" opacity="0.9"/><polygon points="250,136 267,138 260,148" fill="#DDDDFF" opacity="0.8"/><polygon points="264,168 306,167 273,160" fill="#DDDDFF" opacity="0.6"/><polygon points="268,180 312,187 270,182" fill="#DDDDFF" opacity="0.6"/>
  <circle cx="200" cy="200" r="100" fill="url(#exp_white)" opacity="0.85"/>
  <circle cx="200" cy="200" r="60" fill="#DDDDFF" opacity="0.7"/>
  <circle cx="200" cy="200" r="28" fill="white" opacity="0.7"/>
  <circle cx="182" cy="182" r="12" fill="white" opacity="0.6"/>
  <text x="200" y="210" text-anchor="middle" font-size="22" font-weight="bold" fill="white" font-family="Arial Black,sans-serif" opacity="0.9">ULTRA</text>
</svg>