<svg viewBox="0 0 400 400" xmlns="http://www.w3.org/2000/svg">
  <defs>
    <radialGradient id="exp_orange" cx="50%" cy="50%" r="50%">
      <stop offset="0%" stop-color="#FFD700" stop-opacity="1"/>
      <stop offset="40%" stop-color="#FF8800" stop-opacity="0.8"/>
      <stop offset="100%" stop-color="#FF3300" stop-opacity="0"/>
    </radialGradient>
  </defs>
  <line x1="200" y1="200" x2="360" y2="200" stroke="#FFEE99" stroke-width="4" opacity="0.8"/><line x1="200" y1="200" x2="350" y2="254" stroke="#FFEE99" stroke-width="2" opacity="0.3"/><line x1="200" y1="200" x2="322" y2="302" stroke="#FFEE99" stroke-width="2" opacity="0.8"/><line x1="200" y1="200" x2="280" y2="338" stroke="#FFEE99" stroke-width="4" opacity="0.3"/><line x1="200" y1="200" x2="227" y2="357" stroke="#FFEE99" stroke-width="2" opacity="0.8"/><line x1="200" y1="200" x2="172" y2="357" stroke="#FFEE99" stroke-width="2" opacity="0.3"/><line x1="200" y1="200" x2="120" y2="338" stroke="#FFEE99" stroke-width="4" opacity="0.8"/><line x1="200" y1="200" x2="77" y2="302" stroke="#FFEE99" stroke-width="2" opacity="0.3"/><line x1="200" y1="200" x2="49" y2="254" stroke="#FFEE99" stroke-width="2" opacity="0.8"/><line x1="200" y1="200" x2="40" y2="200" stroke="#FFEE99" stroke-width="4" opacity="0.3"/><line x1="200" y1="200" x2="49" y2="145" stroke="#FFEE99" stroke-width="2" opacity="0.8"/><line x1="200" y1="200" x2="77" y2="97" stroke="#FFEE99" stroke-width="2" opacity="0.3"/><line x1="200" y1="200" x2="119" y2="61" stroke="#FFEE99" stroke-width="4" opacity="0.8"/><line x1="200" y1="200" x2="172" y2="42" stroke="#FFEE99" stroke-width="2" opacity="0.3"/><line x1="200" y1="200" x2="227" y2="42" stroke="#FFEE99" stroke-width="2" opacity="0.8"/><line x1="200" y1="200" x2="280" y2="61" stroke="#FFEE99" stroke-width="4" opacity="0.3"/><line x1="200" y1="200" x2="322" y2="97" stroke="#FFEE99" stroke-width="2" opacity="0.8"/><line x1="200" y1="200" x2="350" y2="145" stroke="#FFEE99" stroke-width="2" opacity="0.3"/>
  <polygon points="288,200 311,216 280,206" fill="#FFD700" opacity="0.6"/><polygon points="285,219 302,235 270,225" fill="#FFD700" opacity="0.6"/><polygon points="269,231 277,270 272,247" fill="#FFD700" opacity="0.7"/><polygon points="270,248 258,283 258,264" fill="#FFD700" opacity="0.6"/><polygon points="230,254 240,301 240,273" fill="#FFD700" opacity="0.9"/><polygon points="222,290 213,289 217,271" fill="#FFD700" opacity="0.8"/><polygon points="200,285 185,313 194,289" fill="#FFD700" opacity="0.8"/><polygon points="183,268 160,295 175,277" fill="#FFD700" opacity="0.9"/><polygon points="154,271 140,275 151,264" fill="#FFD700" opacity="0.6"/><polygon points="136,267 131,255 141,248" fill="#FFD700" opacity="0.6"/><polygon points="141,236 101,232 119,237" fill="#FFD700" opacity="0.8"/><polygon points="129,221 104,211 121,217" fill="#FFD700" opacity="0.8"/><polygon points="114,200 93,186 126,194" fill="#FFD700" opacity="0.7"/><polygon points="131,178 114,158 113,170" fill="#FFD700" opacity="0.7"/><polygon points="142,170 113,129 124,157" fill="#FFD700" opacity="0.6"/><polygon points="154,133 136,109 150,135" fill="#FFD700" opacity="0.9"/><polygon points="150,115 165,105 163,118" fill="#FFD700" opacity="0.7"/><polygon points="178,109 189,114 183,112" fill="#FFD700" opacity="0.7"/><polygon points="199,108 213,115 205,118" fill="#FFD700" opacity="0.5"/><polygon points="223,114 234,119 226,124" fill="#FFD700" opacity="0.9"/><polygon points="240,133 254,111 240,123" fill="#FFD700" opacity="0.8"/><polygon points="244,139 289,147 255,145" fill="#FFD700" opacity="0.5"/><polygon points="255,165 302,163 277,167" fill="#FFD700" opacity="0.6"/><polygon points="273,177 292,189 290,185" fill="#FFD700" opacity="0.8"/>
  <circle cx="200" cy="200" r="100" fill="url(#exp_orange)" opacity="0.85"/>
  <circle cx="200" cy="200" r="60" fill="#FFD700" opacity="0.7"/>
  <circle cx="200" cy="200" r="28" fill="white" opacity="0.7"/>
  <circle cx="182" cy="182" r="12" fill="white" opacity="0.6"/>
  
</svg>