<svg viewBox="0 0 100 100" xmlns="http://www.w3.org/2000/svg">
  <defs>
    <radialGradient id="kg_green" cx="40%" cy="35%" r="70%">
      <stop offset="0%" stop-color="#CCFFCC"/>
      <stop offset="40%" stop-color="#00CC44"/>
      <stop offset="100%" stop-color="#007722"/>
    </radialGradient>
    <radialGradient id="kglow_green" cx="50%" cy="50%" r="50%">
      <stop offset="0%" stop-color="#00CC44" stop-opacity="0.5"/>
      <stop offset="100%" stop-color="#007722" stop-opacity="0"/>
    </radialGradient>
  </defs>
  <!-- Outer glow rings -->
  <circle cx="50" cy="50" r="70" fill="url(#kglow_green)" opacity="0.5"/>
  <circle cx="50" cy="50" r="55" fill="none" stroke="#AAFFBB" stroke-width="2" opacity="0.4"/>
  <circle cx="50" cy="50" r="60" fill="none" stroke="#AAFFBB" stroke-width="1" opacity="0.25"/>
  <!-- Energy ring sparkles -->
  <line x1="107" y1="50" x2="120" y2="50" stroke="#AAFFBB" stroke-width="1.5" opacity="0.8"/><line x1="99" y1="78" x2="110" y2="85" stroke="#AAFFBB" stroke-width="1.5" opacity="0.3"/><line x1="78" y1="99" x2="85" y2="110" stroke="#AAFFBB" stroke-width="1.5" opacity="0.3"/><line x1="50" y1="107" x2="50" y2="120" stroke="#AAFFBB" stroke-width="1.5" opacity="0.8"/><line x1="21" y1="99" x2="15" y2="110" stroke="#AAFFBB" stroke-width="1.5" opacity="0.3"/><line x1="0" y1="78" x2="-10" y2="85" stroke="#AAFFBB" stroke-width="1.5" opacity="0.3"/><line x1="-7" y1="50" x2="-20" y2="50" stroke="#AAFFBB" stroke-width="1.5" opacity="0.8"/><line x1="0" y1="21" x2="-10" y2="14" stroke="#AAFFBB" stroke-width="1.5" opacity="0.3"/><line x1="21" y1="0" x2="14" y2="-10" stroke="#AAFFBB" stroke-width="1.5" opacity="0.3"/><line x1="49" y1="-7" x2="49" y2="-20" stroke="#AAFFBB" stroke-width="1.5" opacity="0.8"/><line x1="78" y1="0" x2="85" y2="-10" stroke="#AAFFBB" stroke-width="1.5" opacity="0.3"/><line x1="99" y1="21" x2="110" y2="14" stroke="#AAFFBB" stroke-width="1.5" opacity="0.3"/>
  <!-- Main ball -->
  <circle cx="50" cy="50" r="50" fill="url(#kg_green)"/>
  <!-- Inner core highlight -->
  <circle cx="37" cy="37" r="17" fill="#CCFFCC" opacity="0.5"/>
  <circle cx="40" cy="40" r="6" fill="white" opacity="0.8"/>
  <!-- Energy crackling lines -->
  <path d="M50,0 L42,30 L60,23 L50,45" fill="none" stroke="#AAFFBB" stroke-width="1.5" opacity="0.6"/>
  <path d="M85,15 L70,40 L80,50" fill="none" stroke="#AAFFBB" stroke-width="1" opacity="0.5"/>
</svg>