<svg viewBox="0 0 600 400" xmlns="http://www.w3.org/2000/svg">
  <!-- Dashboard frame with lightning -->
  <rect x="3" y="3" width="594" height="394" rx="12" fill="none" stroke="#CC44FF" stroke-width="2.5" opacity="0.8"/>
  <rect x="8" y="8" width="584" height="384" rx="10" fill="none" stroke="#CC44FF" stroke-width="1" opacity="0.3"/>
  <!-- Corner accents -->
  <rect x="3" y="3" width="40" height="6" rx="2" fill="#CC44FF" opacity="0.9"/>
  <rect x="3" y="3" width="6" height="40" rx="2" fill="#CC44FF" opacity="0.9"/>
  <rect x="557" y="3" width="40" height="6" rx="2" fill="#CC44FF" opacity="0.9"/>
  <rect x="591" y="3" width="6" height="40" rx="2" fill="#CC44FF" opacity="0.9"/>
  <rect x="3" y="391" width="40" height="6" rx="2" fill="#CC44FF" opacity="0.9"/>
  <rect x="3" y="357" width="6" height="40" rx="2" fill="#CC44FF" opacity="0.9"/>
  <rect x="557" y="391" width="40" height="6" rx="2" fill="#CC44FF" opacity="0.9"/>
  <rect x="591" y="357" width="6" height="40" rx="2" fill="#CC44FF" opacity="0.9"/>
  <!-- Lightning bolts -->
  <path d="M467,0 L462,23 L441,58" stroke="#CC44FF" stroke-width="1" fill="none" opacity="0.4" stroke-linecap="round"/><path d="M600,212 L594,206 L558,209" stroke="#CC44FF" stroke-width="2" fill="none" opacity="0.8" stroke-linecap="round"/><path d="M208,400 L218,370 L234,350" stroke="#CC44FF" stroke-width="3" fill="none" opacity="0.9" stroke-linecap="round"/><path d="M0,240 L28,241 L38,221" stroke="#CC44FF" stroke-width="2" fill="none" opacity="0.8" stroke-linecap="round"/><path d="M93,0 L103,0 L103,31" stroke="#CC44FF" stroke-width="1" fill="none" opacity="0.9" stroke-linecap="round"/><path d="M600,131 L594,142 L558,150" stroke="#CC44FF" stroke-width="3" fill="none" opacity="0.5" stroke-linecap="round"/><path d="M72,400 L50,390 L43,355" stroke="#CC44FF" stroke-width="2" fill="none" opacity="0.8" stroke-linecap="round"/><path d="M0,351 L9,354 L37,341" stroke="#CC44FF" stroke-width="2" fill="none" opacity="0.6" stroke-linecap="round"/><path d="M431,0 L434,20 L440,24" stroke="#CC44FF" stroke-width="3" fill="none" opacity="0.6" stroke-linecap="round"/><path d="M600,296 L595,291 L565,306" stroke="#CC44FF" stroke-width="1" fill="none" opacity="0.6" stroke-linecap="round"/><path d="M479,400 L460,372 L453,361" stroke="#CC44FF" stroke-width="1" fill="none" opacity="0.8" stroke-linecap="round"/><path d="M0,206 L28,216 L49,220" stroke="#CC44FF" stroke-width="1" fill="none" opacity="0.8" stroke-linecap="round"/><path d="M153,0 L128,15 L134,47" stroke="#CC44FF" stroke-width="2" fill="none" opacity="0.5" stroke-linecap="round"/><path d="M600,155 L590,166 L567,162" stroke="#CC44FF" stroke-width="2" fill="none" opacity="0.7" stroke-linecap="round"/><path d="M91,400 L78,379 L94,353" stroke="#CC44FF" stroke-width="2" fill="none" opacity="0.7" stroke-linecap="round"/><path d="M0,131 L18,121 L48,136" stroke="#CC44FF" stroke-width="1" fill="none" opacity="0.7" stroke-linecap="round"/>
</svg>