<svg viewBox="0 0 600 400" xmlns="http://www.w3.org/2000/svg">
  <!-- Dashboard frame with lightning -->
  <rect x="3" y="3" width="594" height="394" rx="12" fill="none" stroke="#44FF88" stroke-width="2.5" opacity="0.8"/>
  <rect x="8" y="8" width="584" height="384" rx="10" fill="none" stroke="#44FF88" stroke-width="1" opacity="0.3"/>
  <!-- Corner accents -->
  <rect x="3" y="3" width="40" height="6" rx="2" fill="#44FF88" opacity="0.9"/>
  <rect x="3" y="3" width="6" height="40" rx="2" fill="#44FF88" opacity="0.9"/>
  <rect x="557" y="3" width="40" height="6" rx="2" fill="#44FF88" opacity="0.9"/>
  <rect x="591" y="3" width="6" height="40" rx="2" fill="#44FF88" opacity="0.9"/>
  <rect x="3" y="391" width="40" height="6" rx="2" fill="#44FF88" opacity="0.9"/>
  <rect x="3" y="357" width="6" height="40" rx="2" fill="#44FF88" opacity="0.9"/>
  <rect x="557" y="391" width="40" height="6" rx="2" fill="#44FF88" opacity="0.9"/>
  <rect x="591" y="357" width="6" height="40" rx="2" fill="#44FF88" opacity="0.9"/>
  <!-- Lightning bolts -->
  <path d="M451,0 L438,2 L430,26" stroke="#44FF88" stroke-width="2" fill="none" opacity="0.7" stroke-linecap="round"/><path d="M600,125 L595,123 L560,128" stroke="#44FF88" stroke-width="1" fill="none" opacity="0.7" stroke-linecap="round"/><path d="M370,400 L346,396 L352,363" stroke="#44FF88" stroke-width="3" fill="none" opacity="0.6" stroke-linecap="round"/><path d="M0,344 L23,351 L32,344" stroke="#44FF88" stroke-width="1" fill="none" opacity="0.4" stroke-linecap="round"/><path d="M485,0 L483,24 L488,24" stroke="#44FF88" stroke-width="3" fill="none" opacity="0.6" stroke-linecap="round"/><path d="M600,311 L593,313 L574,330" stroke="#44FF88" stroke-width="3" fill="none" opacity="0.6" stroke-linecap="round"/><path d="M109,400 L94,372 L103,363" stroke="#44FF88" stroke-width="2" fill="none" opacity="0.4" stroke-linecap="round"/><path d="M0,176 L18,163 L54,181" stroke="#44FF88" stroke-width="2" fill="none" opacity="0.6" stroke-linecap="round"/><path d="M161,0 L168,9 L153,49" stroke="#44FF88" stroke-width="2" fill="none" opacity="0.6" stroke-linecap="round"/><path d="M600,263 L591,261 L569,275" stroke="#44FF88" stroke-width="2" fill="none" opacity="0.7" stroke-linecap="round"/><path d="M44,400 L55,372 L66,350" stroke="#44FF88" stroke-width="1" fill="none" opacity="0.8" stroke-linecap="round"/><path d="M0,86 L-5,75 L20,76" stroke="#44FF88" stroke-width="1" fill="none" opacity="0.7" stroke-linecap="round"/><path d="M205,0 L181,27 L182,46" stroke="#44FF88" stroke-width="1" fill="none" opacity="0.4" stroke-linecap="round"/><path d="M600,243 L589,230 L556,227" stroke="#44FF88" stroke-width="2" fill="none" opacity="0.7" stroke-linecap="round"/><path d="M500,400 L488,388 L484,379" stroke="#44FF88" stroke-width="2" fill="none" opacity="0.6" stroke-linecap="round"/><path d="M0,62 L16,62 L21,70" stroke="#44FF88" stroke-width="3" fill="none" opacity="0.6" stroke-linecap="round"/>
</svg>