<svg viewBox="0 0 600 400" xmlns="http://www.w3.org/2000/svg">
  <!-- Dashboard frame with lightning -->
  <rect x="3" y="3" width="594" height="394" rx="12" fill="none" stroke="#44AAFF" stroke-width="2.5" opacity="0.8"/>
  <rect x="8" y="8" width="584" height="384" rx="10" fill="none" stroke="#44AAFF" stroke-width="1" opacity="0.3"/>
  <!-- Corner accents -->
  <rect x="3" y="3" width="40" height="6" rx="2" fill="#44AAFF" opacity="0.9"/>
  <rect x="3" y="3" width="6" height="40" rx="2" fill="#44AAFF" opacity="0.9"/>
  <rect x="557" y="3" width="40" height="6" rx="2" fill="#44AAFF" opacity="0.9"/>
  <rect x="591" y="3" width="6" height="40" rx="2" fill="#44AAFF" opacity="0.9"/>
  <rect x="3" y="391" width="40" height="6" rx="2" fill="#44AAFF" opacity="0.9"/>
  <rect x="3" y="357" width="6" height="40" rx="2" fill="#44AAFF" opacity="0.9"/>
  <rect x="557" y="391" width="40" height="6" rx="2" fill="#44AAFF" opacity="0.9"/>
  <rect x="591" y="357" width="6" height="40" rx="2" fill="#44AAFF" opacity="0.9"/>
  <!-- Lightning bolts -->
  <path d="M403,0 L399,14 L397,39" stroke="#44AAFF" stroke-width="2" fill="none" opacity="0.5" stroke-linecap="round"/><path d="M600,134 L590,133 L577,151" stroke="#44AAFF" stroke-width="3" fill="none" opacity="0.8" stroke-linecap="round"/><path d="M510,400 L503,391 L486,352" stroke="#44AAFF" stroke-width="1" fill="none" opacity="0.7" stroke-linecap="round"/><path d="M0,284 L21,285 L58,275" stroke="#44AAFF" stroke-width="1" fill="none" opacity="0.7" stroke-linecap="round"/><path d="M510,0 L520,26 L510,44" stroke="#44AAFF" stroke-width="3" fill="none" opacity="0.4" stroke-linecap="round"/><path d="M600,187 L575,176 L559,190" stroke="#44AAFF" stroke-width="3" fill="none" opacity="0.5" stroke-linecap="round"/><path d="M68,400 L50,400 L56,370" stroke="#44AAFF" stroke-width="2" fill="none" opacity="0.8" stroke-linecap="round"/><path d="M0,332 L12,347 L42,345" stroke="#44AAFF" stroke-width="3" fill="none" opacity="0.7" stroke-linecap="round"/><path d="M251,0 L249,40 L233,59" stroke="#44AAFF" stroke-width="3" fill="none" opacity="0.7" stroke-linecap="round"/><path d="M600,75 L588,69 L559,76" stroke="#44AAFF" stroke-width="3" fill="none" opacity="0.4" stroke-linecap="round"/><path d="M168,400 L148,368 L156,354" stroke="#44AAFF" stroke-width="2" fill="none" opacity="0.8" stroke-linecap="round"/><path d="M0,152 L21,159 L57,162" stroke="#44AAFF" stroke-width="2" fill="none" opacity="0.6" stroke-linecap="round"/><path d="M452,0 L453,25 L442,28" stroke="#44AAFF" stroke-width="3" fill="none" opacity="0.6" stroke-linecap="round"/><path d="M600,278 L569,269 L567,266" stroke="#44AAFF" stroke-width="3" fill="none" opacity="0.7" stroke-linecap="round"/><path d="M100,400 L92,380 L110,344" stroke="#44AAFF" stroke-width="3" fill="none" opacity="0.7" stroke-linecap="round"/><path d="M0,184 L0,176 L29,190" stroke="#44AAFF" stroke-width="1" fill="none" opacity="0.5" stroke-linecap="round"/>
</svg>