<svg viewBox="0 0 600 400" xmlns="http://www.w3.org/2000/svg">
  <!-- Dashboard frame with lightning -->
  <rect x="3" y="3" width="594" height="394" rx="12" fill="none" stroke="#FFD700" stroke-width="2.5" opacity="0.8"/>
  <rect x="8" y="8" width="584" height="384" rx="10" fill="none" stroke="#FFD700" stroke-width="1" opacity="0.3"/>
  <!-- Corner accents -->
  <rect x="3" y="3" width="40" height="6" rx="2" fill="#FFD700" opacity="0.9"/>
  <rect x="3" y="3" width="6" height="40" rx="2" fill="#FFD700" opacity="0.9"/>
  <rect x="557" y="3" width="40" height="6" rx="2" fill="#FFD700" opacity="0.9"/>
  <rect x="591" y="3" width="6" height="40" rx="2" fill="#FFD700" opacity="0.9"/>
  <rect x="3" y="391" width="40" height="6" rx="2" fill="#FFD700" opacity="0.9"/>
  <rect x="3" y="357" width="6" height="40" rx="2" fill="#FFD700" opacity="0.9"/>
  <rect x="557" y="391" width="40" height="6" rx="2" fill="#FFD700" opacity="0.9"/>
  <rect x="591" y="357" width="6" height="40" rx="2" fill="#FFD700" opacity="0.9"/>
  <!-- Lightning bolts -->
  <path d="M528,0 L551,26 L554,26" stroke="#FFD700" stroke-width="1" fill="none" opacity="0.5" stroke-linecap="round"/><path d="M600,312 L600,299 L577,300" stroke="#FFD700" stroke-width="1" fill="none" opacity="0.7" stroke-linecap="round"/><path d="M554,400 L565,371 L573,359" stroke="#FFD700" stroke-width="3" fill="none" opacity="0.8" stroke-linecap="round"/><path d="M0,208 L19,210 L33,194" stroke="#FFD700" stroke-width="3" fill="none" opacity="0.8" stroke-linecap="round"/><path d="M375,0 L353,21 L357,24" stroke="#FFD700" stroke-width="2" fill="none" opacity="0.8" stroke-linecap="round"/><path d="M600,100 L577,97 L574,102" stroke="#FFD700" stroke-width="2" fill="none" opacity="0.8" stroke-linecap="round"/><path d="M389,400 L373,375 L369,378" stroke="#FFD700" stroke-width="3" fill="none" opacity="0.8" stroke-linecap="round"/><path d="M0,103 L33,99 L47,100" stroke="#FFD700" stroke-width="3" fill="none" opacity="0.6" stroke-linecap="round"/><path d="M449,0 L438,6 L438,25" stroke="#FFD700" stroke-width="2" fill="none" opacity="0.8" stroke-linecap="round"/><path d="M600,371 L576,366 L541,360" stroke="#FFD700" stroke-width="1" fill="none" opacity="0.6" stroke-linecap="round"/><path d="M378,400 L387,401 L396,372" stroke="#FFD700" stroke-width="1" fill="none" opacity="0.5" stroke-linecap="round"/><path d="M0,69 L22,78 L23,66" stroke="#FFD700" stroke-width="3" fill="none" opacity="0.5" stroke-linecap="round"/><path d="M357,0 L376,23 L376,38" stroke="#FFD700" stroke-width="2" fill="none" opacity="0.5" stroke-linecap="round"/><path d="M600,199 L588,207 L562,214" stroke="#FFD700" stroke-width="3" fill="none" opacity="0.5" stroke-linecap="round"/><path d="M159,400 L175,384 L171,365" stroke="#FFD700" stroke-width="1" fill="none" opacity="0.7" stroke-linecap="round"/><path d="M0,295 L23,290 L23,281" stroke="#FFD700" stroke-width="1" fill="none" opacity="0.5" stroke-linecap="round"/>
</svg>