<svg viewBox="0 0 600 400" xmlns="http://www.w3.org/2000/svg">
  <!-- Dashboard frame with lightning -->
  <rect x="3" y="3" width="594" height="394" rx="12" fill="none" stroke="#FFFFFF" stroke-width="2.5" opacity="0.8"/>
  <rect x="8" y="8" width="584" height="384" rx="10" fill="none" stroke="#FFFFFF" stroke-width="1" opacity="0.3"/>
  <!-- Corner accents -->
  <rect x="3" y="3" width="40" height="6" rx="2" fill="#FFFFFF" opacity="0.9"/>
  <rect x="3" y="3" width="6" height="40" rx="2" fill="#FFFFFF" opacity="0.9"/>
  <rect x="557" y="3" width="40" height="6" rx="2" fill="#FFFFFF" opacity="0.9"/>
  <rect x="591" y="3" width="6" height="40" rx="2" fill="#FFFFFF" opacity="0.9"/>
  <rect x="3" y="391" width="40" height="6" rx="2" fill="#FFFFFF" opacity="0.9"/>
  <rect x="3" y="357" width="6" height="40" rx="2" fill="#FFFFFF" opacity="0.9"/>
  <rect x="557" y="391" width="40" height="6" rx="2" fill="#FFFFFF" opacity="0.9"/>
  <rect x="591" y="357" width="6" height="40" rx="2" fill="#FFFFFF" opacity="0.9"/>
  <!-- Lightning bolts -->
  <path d="M58,0 L80,27 L72,30" stroke="#FFFFFF" stroke-width="1" fill="none" opacity="0.4" stroke-linecap="round"/><path d="M600,153 L586,154 L547,140" stroke="#FFFFFF" stroke-width="1" fill="none" opacity="0.8" stroke-linecap="round"/><path d="M214,400 L203,390 L193,376" stroke="#FFFFFF" stroke-width="3" fill="none" opacity="0.5" stroke-linecap="round"/><path d="M0,140 L6,146 L36,122" stroke="#FFFFFF" stroke-width="1" fill="none" opacity="0.8" stroke-linecap="round"/><path d="M318,0 L330,40 L321,54" stroke="#FFFFFF" stroke-width="1" fill="none" opacity="0.5" stroke-linecap="round"/><path d="M600,175 L570,179 L553,183" stroke="#FFFFFF" stroke-width="3" fill="none" opacity="0.8" stroke-linecap="round"/><path d="M183,400 L203,385 L210,370" stroke="#FFFFFF" stroke-width="1" fill="none" opacity="0.6" stroke-linecap="round"/><path d="M0,355 L24,350 L23,359" stroke="#FFFFFF" stroke-width="2" fill="none" opacity="0.6" stroke-linecap="round"/><path d="M293,0 L301,20 L315,38" stroke="#FFFFFF" stroke-width="3" fill="none" opacity="0.7" stroke-linecap="round"/><path d="M600,173 L566,154 L556,164" stroke="#FFFFFF" stroke-width="2" fill="none" opacity="0.9" stroke-linecap="round"/><path d="M384,400 L375,377 L396,343" stroke="#FFFFFF" stroke-width="3" fill="none" opacity="0.5" stroke-linecap="round"/><path d="M0,213 L23,217 L27,225" stroke="#FFFFFF" stroke-width="2" fill="none" opacity="0.7" stroke-linecap="round"/><path d="M159,0 L170,24 L172,33" stroke="#FFFFFF" stroke-width="1" fill="none" opacity="0.6" stroke-linecap="round"/><path d="M600,247 L569,247 L561,248" stroke="#FFFFFF" stroke-width="1" fill="none" opacity="0.5" stroke-linecap="round"/><path d="M323,400 L314,379 L324,375" stroke="#FFFFFF" stroke-width="3" fill="none" opacity="0.7" stroke-linecap="round"/><path d="M0,250 L30,242 L33,252" stroke="#FFFFFF" stroke-width="3" fill="none" opacity="0.9" stroke-linecap="round"/>
</svg>