<svg viewBox="0 0 200 200" xmlns="http://www.w3.org/2000/svg">
  <defs>
    <radialGradient id="db_5" cx="35%" cy="35%" r="70%">
      <stop offset="0%" stop-color="#FFE44D"/>
      <stop offset="50%" stop-color="#FF9900"/>
      <stop offset="100%" stop-color="#CC4400"/>
    </radialGradient>
    <radialGradient id="dbglow_5" cx="50%" cy="50%" r="50%">
      <stop offset="0%" stop-color="#FFD700" stop-opacity="0.6"/>
      <stop offset="100%" stop-color="#FF8800" stop-opacity="0"/>
    </radialGradient>
  </defs>
  <!-- Outer glow -->
  <circle cx="100" cy="100" r="96" fill="url(#dbglow_5)" opacity="0.7"/>
  <!-- Main orb -->
  <circle cx="100" cy="100" r="80" fill="url(#db_5)" stroke="#AA4400" stroke-width="2"/>
  <!-- Draw stars as overlapping circles pattern -->
  <g transform="translate(127,86)"><polygon points="0,-10 2.5,-2.5 10,0 2.5,2.5 0,10 -2.5,2.5 -10,0 -2.5,-2.5" fill="#CC2200" opacity="0.95"/></g><g transform="translate(123,118)"><polygon points="0,-10 2.5,-2.5 10,0 2.5,2.5 0,10 -2.5,2.5 -10,0 -2.5,-2.5" fill="#CC2200" opacity="0.95"/></g><g transform="translate(86,125)"><polygon points="0,-10 2.5,-2.5 10,0 2.5,2.5 0,10 -2.5,2.5 -10,0 -2.5,-2.5" fill="#CC2200" opacity="0.95"/></g><g transform="translate(68,97)"><polygon points="0,-10 2.5,-2.5 10,0 2.5,2.5 0,10 -2.5,2.5 -10,0 -2.5,-2.5" fill="#CC2200" opacity="0.95"/></g><g transform="translate(93,72)"><polygon points="0,-10 2.5,-2.5 10,0 2.5,2.5 0,10 -2.5,2.5 -10,0 -2.5,-2.5" fill="#CC2200" opacity="0.95"/></g>

  <!-- Orb highlight -->
  <circle cx="72" cy="68" r="20" fill="white" opacity="0.22"/>
  <circle cx="68" cy="64" r="8" fill="white" opacity="0.3"/>
  <!-- Glow ring -->
  <circle cx="100" cy="100" r="80" fill="none" stroke="#FFE44D" stroke-width="1.5" opacity="0.4"/>
</svg>