<svg viewBox="0 0 420 180" xmlns="http://www.w3.org/2000/svg">
  <rect width="420" height="180" rx="14" fill="#0f0000" stroke="#FF4444" stroke-width="2.5"/>
  <!-- Scan lines effect -->
  <rect x="0" y="0" width="420" height="1" fill="#FF4444" opacity="0.04"/><rect x="0" y="3" width="420" height="1" fill="#FF4444" opacity="0.04"/><rect x="0" y="6" width="420" height="1" fill="#FF4444" opacity="0.04"/><rect x="0" y="9" width="420" height="1" fill="#FF4444" opacity="0.04"/><rect x="0" y="12" width="420" height="1" fill="#FF4444" opacity="0.04"/><rect x="0" y="15" width="420" height="1" fill="#FF4444" opacity="0.04"/><rect x="0" y="18" width="420" height="1" fill="#FF4444" opacity="0.04"/><rect x="0" y="21" width="420" height="1" fill="#FF4444" opacity="0.04"/><rect x="0" y="24" width="420" height="1" fill="#FF4444" opacity="0.04"/><rect x="0" y="27" width="420" height="1" fill="#FF4444" opacity="0.04"/><rect x="0" y="30" width="420" height="1" fill="#FF4444" opacity="0.04"/><rect x="0" y="33" width="420" height="1" fill="#FF4444" opacity="0.04"/><rect x="0" y="36" width="420" height="1" fill="#FF4444" opacity="0.04"/><rect x="0" y="39" width="420" height="1" fill="#FF4444" opacity="0.04"/><rect x="0" y="42" width="420" height="1" fill="#FF4444" opacity="0.04"/><rect x="0" y="45" width="420" height="1" fill="#FF4444" opacity="0.04"/><rect x="0" y="48" width="420" height="1" fill="#FF4444" opacity="0.04"/><rect x="0" y="51" width="420" height="1" fill="#FF4444" opacity="0.04"/><rect x="0" y="54" width="420" height="1" fill="#FF4444" opacity="0.04"/><rect x="0" y="57" width="420" height="1" fill="#FF4444" opacity="0.04"/><rect x="0" y="60" width="420" height="1" fill="#FF4444" opacity="0.04"/><rect x="0" y="63" width="420" height="1" fill="#FF4444" opacity="0.04"/><rect x="0" y="66" width="420" height="1" fill="#FF4444" opacity="0.04"/><rect x="0" y="69" width="420" height="1" fill="#FF4444" opacity="0.04"/><rect x="0" y="72" width="420" height="1" fill="#FF4444" opacity="0.04"/><rect x="0" y="75" width="420" height="1" fill="#FF4444" opacity="0.04"/><rect x="0" y="78" width="420" height="1" fill="#FF4444" opacity="0.04"/><rect x="0" y="81" width="420" height="1" fill="#FF4444" opacity="0.04"/><rect x="0" y="84" width="420" height="1" fill="#FF4444" opacity="0.04"/><rect x="0" y="87" width="420" height="1" fill="#FF4444" opacity="0.04"/><rect x="0" y="90" width="420" height="1" fill="#FF4444" opacity="0.04"/><rect x="0" y="93" width="420" height="1" fill="#FF4444" opacity="0.04"/><rect x="0" y="96" width="420" height="1" fill="#FF4444" opacity="0.04"/><rect x="0" y="99" width="420" height="1" fill="#FF4444" opacity="0.04"/><rect x="0" y="102" width="420" height="1" fill="#FF4444" opacity="0.04"/><rect x="0" y="105" width="420" height="1" fill="#FF4444" opacity="0.04"/><rect x="0" y="108" width="420" height="1" fill="#FF4444" opacity="0.04"/><rect x="0" y="111" width="420" height="1" fill="#FF4444" opacity="0.04"/><rect x="0" y="114" width="420" height="1" fill="#FF4444" opacity="0.04"/><rect x="0" y="117" width="420" height="1" fill="#FF4444" opacity="0.04"/><rect x="0" y="120" width="420" height="1" fill="#FF4444" opacity="0.04"/><rect x="0" y="123" width="420" height="1" fill="#FF4444" opacity="0.04"/><rect x="0" y="126" width="420" height="1" fill="#FF4444" opacity="0.04"/><rect x="0" y="129" width="420" height="1" fill="#FF4444" opacity="0.04"/><rect x="0" y="132" width="420" height="1" fill="#FF4444" opacity="0.04"/><rect x="0" y="135" width="420" height="1" fill="#FF4444" opacity="0.04"/><rect x="0" y="138" width="420" height="1" fill="#FF4444" opacity="0.04"/><rect x="0" y="141" width="420" height="1" fill="#FF4444" opacity="0.04"/><rect x="0" y="144" width="420" height="1" fill="#FF4444" opacity="0.04"/><rect x="0" y="147" width="420" height="1" fill="#FF4444" opacity="0.04"/><rect x="0" y="150" width="420" height="1" fill="#FF4444" opacity="0.04"/><rect x="0" y="153" width="420" height="1" fill="#FF4444" opacity="0.04"/><rect x="0" y="156" width="420" height="1" fill="#FF4444" opacity="0.04"/><rect x="0" y="159" width="420" height="1" fill="#FF4444" opacity="0.04"/><rect x="0" y="162" width="420" height="1" fill="#FF4444" opacity="0.04"/><rect x="0" y="165" width="420" height="1" fill="#FF4444" opacity="0.04"/><rect x="0" y="168" width="420" height="1" fill="#FF4444" opacity="0.04"/><rect x="0" y="171" width="420" height="1" fill="#FF4444" opacity="0.04"/><rect x="0" y="174" width="420" height="1" fill="#FF4444" opacity="0.04"/><rect x="0" y="177" width="420" height="1" fill="#FF4444" opacity="0.04"/>
  <!-- Label -->
  <text x="30" y="45" font-size="14" fill="#FF4444" font-family="monospace" font-weight="bold" opacity="0.8">POWER LEVEL READING</text>
  <!-- Scouter scan line -->
  <line x1="20" y1="58" x2="400" y2="58" stroke="#FF4444" stroke-width="1" opacity="0.4"/>
  <!-- Big number -->
  <text x="210" y="130" text-anchor="middle" font-size="64" font-weight="bold" fill="#FF4444" font-family="Arial Black,sans-serif" letter-spacing="4">50,000</text>
  <!-- IT'S OVER 9000 style sub-label -->
  <text x="210" y="165" text-anchor="middle" font-size="16" fill="#FF0000" font-family="Arial Black,sans-serif" letter-spacing="2">RISING</text>
  <!-- Bar graph -->
  <rect x="30" y="145" width="360" height="8" rx="4" fill="#FF4444" opacity="0.2"/>
  <rect x="30" y="145" width="18" height="8" rx="4" fill="#FF4444" opacity="0.8"/>
</svg>