<svg viewBox="0 0 400 520" xmlns="http://www.w3.org/2000/svg">
  <defs>
    <radialGradient id="celglow10" cx="50%" cy="40%" r="60%">
      <stop offset="0%" stop-color="#555" stop-opacity="0.3"/>
      <stop offset="100%" stop-color="transparent"/>
    </radialGradient>
  </defs>
  <rect width="400" height="520" fill="url(#celglow10)"/>
  <!-- Star burst particles -->
  <circle cx="294" cy="26" r="3" fill="#555" opacity="0.3"/><circle cx="314" cy="74" r="2" fill="#555" opacity="0.3"/><circle cx="85" cy="72" r="6" fill="#555" opacity="0.5"/><circle cx="162" cy="32" r="3" fill="#555" opacity="0.5"/><circle cx="166" cy="67" r="6" fill="#555" opacity="0.4"/><circle cx="277" cy="64" r="5" fill="#555" opacity="0.9"/><circle cx="63" cy="80" r="4" fill="#555" opacity="0.8"/><circle cx="259" cy="34" r="2" fill="#555" opacity="0.6"/><circle cx="75" cy="100" r="3" fill="#555" opacity="0.8"/><circle cx="217" cy="77" r="5" fill="#555" opacity="0.4"/><circle cx="219" cy="80" r="5" fill="#555" opacity="0.7"/><circle cx="180" cy="98" r="2" fill="#555" opacity="0.5"/><circle cx="91" cy="41" r="3" fill="#555" opacity="0.3"/><circle cx="78" cy="91" r="6" fill="#555" opacity="0.4"/><circle cx="155" cy="85" r="3" fill="#555" opacity="0.6"/><circle cx="196" cy="120" r="6" fill="#555" opacity="0.7"/><circle cx="331" cy="62" r="3" fill="#555" opacity="0.5"/><circle cx="273" cy="60" r="4" fill="#555" opacity="0.7"/>
  <!-- Stars -->
  <text x="60" y="80" font-size="24" fill="#555" opacity="0.8">★</text>
  <text x="320" y="70" font-size="20" fill="#555" opacity="0.7">★</text>
  <text x="150" y="50" font-size="16" fill="white" opacity="0.6">★</text>
  <text x="260" y="55" font-size="18" fill="white" opacity="0.5">★</text>
  <ellipse cx="200" cy="505" rx="60" ry="10" fill="#00000040"/>
  <!-- Legs straight standing -->
  <path d="M184,368 L180,445 L176,482" stroke="#8B4513" stroke-width="22" stroke-linecap="round" fill="none"/>
  <path d="M216,368 L220,445 L224,482" stroke="#8B4513" stroke-width="22" stroke-linecap="round" fill="none"/>
  <!-- Shoes -->
  <rect x="152" y="475" width="48" height="18" rx="9" fill="#111" stroke="#333" stroke-width="1.5"/>
  <rect x="200" y="475" width="48" height="18" rx="9" fill="#111" stroke="#333" stroke-width="1.5"/>
  <!-- Shorts -->
  <rect x="163" y="312" width="74" height="60" rx="12" fill="#111" stroke="#333" stroke-width="2"/>
  <!-- Torso -->
  <rect x="170" y="230" width="60" height="86" rx="15" fill="#111" stroke="#333" stroke-width="2"/>
  <text x="200" y="282" text-anchor="middle" font-size="24" font-weight="bold" fill="#555" font-family="Arial Black,sans-serif">10</text>
  <!-- Head -->
  <circle cx="200" cy="186" r="44" fill="#8B4513" stroke="#333" stroke-width="2"/>
  <circle cx="184" cy="181" r="5" fill="white"/><circle cx="186" cy="181" r="3" fill="#111"/>
  <circle cx="216" cy="181" r="5" fill="white"/><circle cx="218" cy="181" r="3" fill="#111"/>
  <!-- Big smile -->
  <path d="M183,203 Q200,218 217,203" stroke="#111" stroke-width="2.5" fill="none" stroke-linecap="round"/>
  <!-- Teeth -->
  <path d="M186,207 Q200,215 214,207" fill="white" opacity="0.9"/>
  <!-- Headband -->
  <rect x="158" y="172" width="84" height="15" rx="7" fill="#555" stroke="#333" stroke-width="1"/>
  <!-- Both arms raised in V shape -->
  <path d="M170,248 L130,195 L100,140" stroke="#8B4513" stroke-width="18" stroke-linecap="round" fill="none"/>
  <path d="M230,248 L270,195 L300,140" stroke="#8B4513" stroke-width="18" stroke-linecap="round" fill="none"/>
  <!-- Hands raised -->
  <circle cx="96" cy="132" r="14" fill="#8B4513" stroke="#333" stroke-width="1.5"/>
  <circle cx="304" cy="132" r="14" fill="#8B4513" stroke="#333" stroke-width="1.5"/>
  <!-- Rays of celebration -->
  <line x1="200" y1="160" x2="200" y2="100" stroke="#555" stroke-width="2.5" opacity="0.5"/>
  <line x1="200" y1="160" x2="155" y2="110" stroke="#555" stroke-width="2" opacity="0.4"/>
  <line x1="200" y1="160" x2="245" y2="110" stroke="#555" stroke-width="2" opacity="0.4"/>
</svg>