<svg viewBox="0 0 400 520" xmlns="http://www.w3.org/2000/svg">
  <defs>
    <radialGradient id="celglow10" cx="50%" cy="40%" r="60%">
      <stop offset="0%" stop-color="#E5E7EB" stop-opacity="0.3"/>
      <stop offset="100%" stop-color="transparent"/>
    </radialGradient>
  </defs>
  <rect width="400" height="520" fill="url(#celglow10)"/>
  <!-- Star burst particles -->
  <circle cx="163" cy="23" r="2" fill="#E5E7EB" opacity="0.5"/><circle cx="208" cy="67" r="6" fill="#E5E7EB" opacity="0.7"/><circle cx="188" cy="36" r="5" fill="#E5E7EB" opacity="0.7"/><circle cx="318" cy="99" r="3" fill="#E5E7EB" opacity="0.6"/><circle cx="167" cy="90" r="5" fill="#E5E7EB" opacity="0.4"/><circle cx="173" cy="49" r="2" fill="#E5E7EB" opacity="0.8"/><circle cx="319" cy="82" r="5" fill="#E5E7EB" opacity="0.5"/><circle cx="296" cy="60" r="4" fill="#E5E7EB" opacity="0.5"/><circle cx="299" cy="63" r="4" fill="#E5E7EB" opacity="0.6"/><circle cx="194" cy="95" r="3" fill="#E5E7EB" opacity="0.5"/><circle cx="107" cy="24" r="6" fill="#E5E7EB" opacity="0.9"/><circle cx="78" cy="39" r="5" fill="#E5E7EB" opacity="0.4"/><circle cx="139" cy="27" r="3" fill="#E5E7EB" opacity="0.9"/><circle cx="308" cy="50" r="4" fill="#E5E7EB" opacity="0.5"/><circle cx="232" cy="23" r="6" fill="#E5E7EB" opacity="0.6"/><circle cx="302" cy="72" r="4" fill="#E5E7EB" opacity="0.9"/><circle cx="207" cy="53" r="6" fill="#E5E7EB" opacity="0.8"/><circle cx="75" cy="52" r="4" fill="#E5E7EB" opacity="0.6"/>
  <!-- Stars -->
  <text x="60" y="80" font-size="24" fill="#E5E7EB" opacity="0.8">★</text>
  <text x="320" y="70" font-size="20" fill="#E5E7EB" opacity="0.7">★</text>
  <text x="150" y="50" font-size="16" fill="white" opacity="0.6">★</text>
  <text x="260" y="55" font-size="18" fill="white" opacity="0.5">★</text>
  <ellipse cx="200" cy="505" rx="60" ry="10" fill="#00000040"/>
  <!-- Legs straight standing -->
  <path d="M184,368 L180,445 L176,482" stroke="#C68642" stroke-width="22" stroke-linecap="round" fill="none"/>
  <path d="M216,368 L220,445 L224,482" stroke="#C68642" stroke-width="22" stroke-linecap="round" fill="none"/>
  <!-- Shoes -->
  <rect x="152" y="475" width="48" height="18" rx="9" fill="#9CA3AF" stroke="#111" stroke-width="1.5"/>
  <rect x="200" y="475" width="48" height="18" rx="9" fill="#9CA3AF" stroke="#111" stroke-width="1.5"/>
  <!-- Shorts -->
  <rect x="163" y="312" width="74" height="60" rx="12" fill="#9CA3AF" stroke="#111" stroke-width="2"/>
  <!-- Torso -->
  <rect x="170" y="230" width="60" height="86" rx="15" fill="#9CA3AF" stroke="#111" stroke-width="2"/>
  <text x="200" y="282" text-anchor="middle" font-size="24" font-weight="bold" fill="#E5E7EB" font-family="Arial Black,sans-serif">10</text>
  <!-- Head -->
  <circle cx="200" cy="186" r="44" fill="#C68642" stroke="#111" stroke-width="2"/>
  <circle cx="184" cy="181" r="5" fill="white"/><circle cx="186" cy="181" r="3" fill="#111"/>
  <circle cx="216" cy="181" r="5" fill="white"/><circle cx="218" cy="181" r="3" fill="#111"/>
  <!-- Big smile -->
  <path d="M183,203 Q200,218 217,203" stroke="#111" stroke-width="2.5" fill="none" stroke-linecap="round"/>
  <!-- Teeth -->
  <path d="M186,207 Q200,215 214,207" fill="white" opacity="0.9"/>
  <!-- Headband -->
  <rect x="158" y="172" width="84" height="15" rx="7" fill="#E5E7EB" stroke="#111" stroke-width="1"/>
  <!-- Both arms raised in V shape -->
  <path d="M170,248 L130,195 L100,140" stroke="#C68642" stroke-width="18" stroke-linecap="round" fill="none"/>
  <path d="M230,248 L270,195 L300,140" stroke="#C68642" stroke-width="18" stroke-linecap="round" fill="none"/>
  <!-- Hands raised -->
  <circle cx="96" cy="132" r="14" fill="#C68642" stroke="#111" stroke-width="1.5"/>
  <circle cx="304" cy="132" r="14" fill="#C68642" stroke="#111" stroke-width="1.5"/>
  <!-- Rays of celebration -->
  <line x1="200" y1="160" x2="200" y2="100" stroke="#E5E7EB" stroke-width="2.5" opacity="0.5"/>
  <line x1="200" y1="160" x2="155" y2="110" stroke="#E5E7EB" stroke-width="2" opacity="0.4"/>
  <line x1="200" y1="160" x2="245" y2="110" stroke="#E5E7EB" stroke-width="2" opacity="0.4"/>
</svg>