<svg viewBox="0 0 400 520" xmlns="http://www.w3.org/2000/svg">
  <defs>
    <radialGradient id="celglow10" cx="50%" cy="40%" r="60%">
      <stop offset="0%" stop-color="#FFA500" stop-opacity="0.3"/>
      <stop offset="100%" stop-color="transparent"/>
    </radialGradient>
  </defs>
  <rect width="400" height="520" fill="url(#celglow10)"/>
  <!-- Star burst particles -->
  <circle cx="283" cy="52" r="6" fill="#FFA500" opacity="0.5"/><circle cx="277" cy="21" r="5" fill="#FFA500" opacity="0.9"/><circle cx="252" cy="109" r="3" fill="#FFA500" opacity="0.9"/><circle cx="283" cy="46" r="3" fill="#FFA500" opacity="0.5"/><circle cx="154" cy="104" r="4" fill="#FFA500" opacity="0.3"/><circle cx="257" cy="90" r="4" fill="#FFA500" opacity="0.5"/><circle cx="327" cy="46" r="5" fill="#FFA500" opacity="0.9"/><circle cx="262" cy="75" r="2" fill="#FFA500" opacity="0.5"/><circle cx="174" cy="60" r="2" fill="#FFA500" opacity="0.5"/><circle cx="96" cy="108" r="5" fill="#FFA500" opacity="0.3"/><circle cx="114" cy="81" r="6" fill="#FFA500" opacity="0.7"/><circle cx="99" cy="97" r="3" fill="#FFA500" opacity="0.4"/><circle cx="303" cy="89" r="4" fill="#FFA500" opacity="0.7"/><circle cx="339" cy="109" r="5" fill="#FFA500" opacity="0.5"/><circle cx="137" cy="66" r="6" fill="#FFA500" opacity="0.9"/><circle cx="237" cy="101" r="3" fill="#FFA500" opacity="0.4"/><circle cx="315" cy="81" r="2" fill="#FFA500" opacity="0.8"/><circle cx="128" cy="110" r="6" fill="#FFA500" opacity="0.6"/>
  <!-- Stars -->
  <text x="60" y="80" font-size="24" fill="#FFA500" opacity="0.8">★</text>
  <text x="320" y="70" font-size="20" fill="#FFA500" opacity="0.7">★</text>
  <text x="150" y="50" font-size="16" fill="white" opacity="0.6">★</text>
  <text x="260" y="55" font-size="18" fill="white" opacity="0.5">★</text>
  <ellipse cx="200" cy="505" rx="60" ry="10" fill="#00000040"/>
  <!-- Legs straight standing -->
  <path d="M184,368 L180,445 L176,482" stroke="#8B4513" stroke-width="22" stroke-linecap="round" fill="none"/>
  <path d="M216,368 L220,445 L224,482" stroke="#8B4513" stroke-width="22" stroke-linecap="round" fill="none"/>
  <!-- Shoes -->
  <rect x="152" y="475" width="48" height="18" rx="9" fill="#FFD700" stroke="#222" stroke-width="1.5"/>
  <rect x="200" y="475" width="48" height="18" rx="9" fill="#FFD700" stroke="#222" stroke-width="1.5"/>
  <!-- Shorts -->
  <rect x="163" y="312" width="74" height="60" rx="12" fill="#FFD700" stroke="#222" stroke-width="2"/>
  <!-- Torso -->
  <rect x="170" y="230" width="60" height="86" rx="15" fill="#FFD700" stroke="#222" stroke-width="2"/>
  <text x="200" y="282" text-anchor="middle" font-size="24" font-weight="bold" fill="#FFA500" font-family="Arial Black,sans-serif">10</text>
  <!-- Head -->
  <circle cx="200" cy="186" r="44" fill="#8B4513" stroke="#222" stroke-width="2"/>
  <circle cx="184" cy="181" r="5" fill="white"/><circle cx="186" cy="181" r="3" fill="#111"/>
  <circle cx="216" cy="181" r="5" fill="white"/><circle cx="218" cy="181" r="3" fill="#111"/>
  <!-- Big smile -->
  <path d="M183,203 Q200,218 217,203" stroke="#111" stroke-width="2.5" fill="none" stroke-linecap="round"/>
  <!-- Teeth -->
  <path d="M186,207 Q200,215 214,207" fill="white" opacity="0.9"/>
  <!-- Headband -->
  <rect x="158" y="172" width="84" height="15" rx="7" fill="#FFA500" stroke="#222" stroke-width="1"/>
  <!-- Both arms raised in V shape -->
  <path d="M170,248 L130,195 L100,140" stroke="#8B4513" stroke-width="18" stroke-linecap="round" fill="none"/>
  <path d="M230,248 L270,195 L300,140" stroke="#8B4513" stroke-width="18" stroke-linecap="round" fill="none"/>
  <!-- Hands raised -->
  <circle cx="96" cy="132" r="14" fill="#8B4513" stroke="#222" stroke-width="1.5"/>
  <circle cx="304" cy="132" r="14" fill="#8B4513" stroke="#222" stroke-width="1.5"/>
  <!-- Rays of celebration -->
  <line x1="200" y1="160" x2="200" y2="100" stroke="#FFA500" stroke-width="2.5" opacity="0.5"/>
  <line x1="200" y1="160" x2="155" y2="110" stroke="#FFA500" stroke-width="2" opacity="0.4"/>
  <line x1="200" y1="160" x2="245" y2="110" stroke="#FFA500" stroke-width="2" opacity="0.4"/>
</svg>