<svg viewBox="0 0 700 480" xmlns="http://www.w3.org/2000/svg">
  <defs>
    <radialGradient id="ffbg" cx="25%" cy="60%" r="80%">
      <stop offset="0%" stop-color="#00112a" stop-opacity="0.95"/>
      <stop offset="100%" stop-color="#000"/>
    </radialGradient>
    <linearGradient id="ffbeam_ssj_blue" x1="0" y1="0" x2="1" y2="0">
      <stop offset="0%" stop-color="#0099FF"/>
      <stop offset="75%" stop-color="#0099FF" stop-opacity="0.5"/>
      <stop offset="100%" stop-color="#0099FF" stop-opacity="0"/>
    </linearGradient>
  </defs>
  <rect width="700" height="480" fill="url(#ffbg)"/>

  <!-- Ground shockwave -->
  <ellipse cx="170" cy="462" rx="148" ry="16" fill="#0099FF" opacity="0.18"/>
  <ellipse cx="170" cy="462" rx="100" ry="10" fill="#0099FF" opacity="0.3"/>

  <!-- Aura -->
  <ellipse cx="170" cy="250" rx="145" ry="230" fill="#0099FF" opacity="0.1"/>
  <path d="M130,170 Q122,140 130,32 Q138,-46 130,-124Z" fill="#0099FF" opacity="0.4"/><path d="M150,170 Q142,140 150,41 Q158,-28 150,-98Z" fill="#0099FF" opacity="0.7"/><path d="M170,170 Q162,140 170,24 Q178,-63 170,-150Z" fill="#0099FF" opacity="0.4"/><path d="M190,170 Q182,140 190,45 Q198,-20 190,-85Z" fill="#0099FF" opacity="0.7"/><path d="M210,170 Q202,140 210,28 Q218,-54 210,-137Z" fill="#0099FF" opacity="0.4"/><path d="M110,170 Q102,140 110,37 Q118,-37 110,-111Z" fill="#0099FF" opacity="0.7"/><path d="M230,170 Q222,140 230,19 Q238,-72 230,-163Z" fill="#0099FF" opacity="0.4"/><path d="M155,160 Q150,110 155,-46 Q160,32 155,-7Z" fill="#AADDFF" opacity="0.6"/><path d="M170,160 Q165,110 170,-46 Q175,32 170,-7Z" fill="#AADDFF" opacity="0.6"/><path d="M185,160 Q180,110 185,-46 Q190,32 185,-7Z" fill="#AADDFF" opacity="0.6"/>
  <path d="M90,60 L105,100 L95,108 L115,145" stroke="#AADDFF" stroke-width="2.5" fill="none" stroke-linecap="round" opacity="0.8"/><path d="M250,70 L238,105 L248,112 L230,150" stroke="#AADDFF" stroke-width="2" fill="none" stroke-linecap="round" opacity="0.7"/><path d="M75,150 L92,175 L82,180 L100,205" stroke="#AADDFF" stroke-width="1.5" fill="none" stroke-linecap="round" opacity="0.6"/><path d="M260,140 L245,170 L255,176 L235,200" stroke="#AADDFF" stroke-width="1.5" fill="none" stroke-linecap="round" opacity="0.6"/>

  <!-- Energy particles -->
  <circle cx="105" cy="328" r="1" fill="#AADDFF" opacity="0.6"/><circle cx="23" cy="208" r="1" fill="#AADDFF" opacity="0.3"/><circle cx="67" cy="177" r="5" fill="#AADDFF" opacity="0.2"/><circle cx="261" cy="155" r="4" fill="#AADDFF" opacity="0.6"/><circle cx="124" cy="166" r="2" fill="#AADDFF" opacity="0.5"/><circle cx="188" cy="258" r="2" fill="#AADDFF" opacity="0.6"/><circle cx="62" cy="172" r="1" fill="#AADDFF" opacity="0.3"/><circle cx="211" cy="288" r="4" fill="#AADDFF" opacity="0.3"/><circle cx="34" cy="57" r="4" fill="#AADDFF" opacity="0.5"/><circle cx="216" cy="378" r="4" fill="#AADDFF" opacity="0.6"/><circle cx="131" cy="431" r="4" fill="#AADDFF" opacity="0.4"/><circle cx="36" cy="142" r="3" fill="#AADDFF" opacity="0.6"/><circle cx="231" cy="134" r="3" fill="#AADDFF" opacity="0.6"/><circle cx="65" cy="323" r="1" fill="#AADDFF" opacity="0.3"/><circle cx="248" cy="359" r="3" fill="#AADDFF" opacity="0.7"/><circle cx="45" cy="341" r="2" fill="#AADDFF" opacity="0.4"/><circle cx="118" cy="408" r="3" fill="#AADDFF" opacity="0.3"/><circle cx="182" cy="444" r="1" fill="#AADDFF" opacity="0.7"/><circle cx="143" cy="318" r="4" fill="#AADDFF" opacity="0.4"/><circle cx="229" cy="173" r="4" fill="#AADDFF" opacity="0.4"/><circle cx="190" cy="145" r="3" fill="#AADDFF" opacity="0.5"/><circle cx="218" cy="164" r="2" fill="#AADDFF" opacity="0.6"/>

  <!-- Warrior - FINAL FLASH stance: arms crossed then thrust forward -->
  <!-- Legs (wide power stance) -->
  <path d="M145,385 L125,445 L118,470" stroke="#C68642" stroke-width="24" stroke-linecap="round" fill="none"/>
  <path d="M195,382 L218,440 L226,466" stroke="#C68642" stroke-width="24" stroke-linecap="round" fill="none"/>
  <ellipse cx="114" cy="472" rx="21" ry="9" fill="#222"/>
  <ellipse cx="229" cy="469" rx="21" ry="9" fill="#222"/>

  <!-- Shorts/belt -->
  <rect x="132" y="330" width="76" height="58" rx="11" fill="#CC3300"/>
  <rect x="126" y="345" width="88" height="13" rx="5" fill="#333"/>

  <!-- Torso (thrust forward posture) -->
  <rect x="138" y="245" width="64" height="88" rx="13" fill="#FF6600" transform="rotate(-8,170,290)"/>

  <!-- Arms THRUST FORWARD palms out -->
  <path d="M142,258 L112,248 L82,240" stroke="#C68642" stroke-width="19" stroke-linecap="round" fill="none"/>
  <path d="M198,258 L228,248 L258,240" stroke="#C68642" stroke-width="19" stroke-linecap="round" fill="none"/>
  <!-- Palms flat, energy gathering -->
  <rect x="60" y="228" width="26" height="20" rx="6" fill="#C68642"/>
  <rect x="252" y="228" width="26" height="20" rx="6" fill="#C68642"/>
  <!-- Energy crackling at palms -->
  <circle cx="73" cy="238" r="12" fill="#0099FF" opacity="0.6"/>
  <circle cx="265" cy="238" r="12" fill="#0099FF" opacity="0.6"/>
  <circle cx="169" cy="242" r="22" fill="#0099FF" opacity="0.45"/>
  <circle cx="169" cy="242" r="14" fill="#AADDFF" opacity="0.6"/>
  <circle cx="169" cy="242" r="7" fill="white" opacity="0.8"/>

  <!-- Head -->
  <circle cx="170" cy="180" r="42" fill="#C68642" stroke="#1a1a1a" stroke-width="1.5"/>
  <ellipse cx="158" cy="176" rx="8" ry="6" fill="white"/>
  <circle cx="159" cy="175" r="4.5" fill="#00CCFF"/>
  <circle cx="160" cy="174" r="2" fill="#111"/>
  <ellipse cx="182" cy="176" rx="8" ry="6" fill="white"/>
  <circle cx="183" cy="175" r="4.5" fill="#00CCFF"/>
  <circle cx="184" cy="174" r="2" fill="#111"/>
  <path d="M152,164 Q163,158 172,162" stroke="#5a3a1a" stroke-width="3.5" fill="none" stroke-linecap="round" opacity="0.8"/>
  <path d="M168,162 Q178,158 189,162" stroke="#5a3a1a" stroke-width="3.5" fill="none" stroke-linecap="round" opacity="0.8"/>
  <path d="M156,196 Q170,203 184,196" stroke="#5a3a1a" stroke-width="2" fill="none" stroke-linecap="round"/>

  <!-- Stocky Vegeta-style upright hair -->
  <path d="M148,152 Q144,120 150,90 L158,118 L154,140Z" fill="#0066FF"/>
  <path d="M160,148 Q156,110 164,82 L172,112 L168,142Z" fill="#0066FF"/>
  <path d="M172,148 Q172,108 182,80 L188,110 L182,140Z" fill="#0066FF"/>
  <path d="M182,150 Q186,114 194,90 L196,118 L190,142Z" fill="#0066FF"/>
  <path d="M136,160 Q130,130 134,105 L144,128 L140,155Z" fill="#0066FF"/>

  <!-- ══ FINAL FLASH BEAM ══ -->
  <path d="M315,200 L700,165 L700,315 L315,280Z" fill="#0099FF" opacity="0.18"/>
  <path d="M315,210 L700,175 L700,305 L315,270Z" fill="url(#ffbeam_ssj_blue)" opacity="0.45"/>
  <path d="M315,218 L700,185 L700,295 L315,262Z" fill="url(#ffbeam_ssj_blue)" opacity="0.65"/>
  <!-- Core -->
  <path d="M315,228 L700,198 L700,282 L315,252Z" fill="#0099FF" opacity="0.75"/>
  <path d="M315,232 L700,205 L700,275 L315,248Z" fill="white" opacity="0.35"/>

  <!-- Sparks -->
  <circle cx="323" cy="257" r="3" fill="#AADDFF" opacity="0.7"/><circle cx="368" cy="256" r="5" fill="#AADDFF" opacity="0.6"/><circle cx="401" cy="245" r="6" fill="#AADDFF" opacity="0.6"/><circle cx="450" cy="245" r="4" fill="#AADDFF" opacity="0.5"/><circle cx="499" cy="220" r="5" fill="#AADDFF" opacity="0.9"/><circle cx="544" cy="223" r="5" fill="#AADDFF" opacity="0.7"/><circle cx="593" cy="245" r="5" fill="#AADDFF" opacity="0.7"/><circle cx="630" cy="246" r="5" fill="#AADDFF" opacity="0.7"/><circle cx="682" cy="248" r="6" fill="#AADDFF" opacity="0.5"/>

  <!-- Badge -->
  <rect x="590" y="14" width="98" height="30" rx="8" fill="#0099FF" opacity="0.9"/>
  <text x="639" y="34" text-anchor="middle" font-size="13" font-weight="bold" fill="black" font-family="Arial Black,sans-serif">FINAL FLASH</text>

  <text x="350" y="462" text-anchor="middle" font-size="24" font-weight="bold" fill="#0099FF" font-family="Arial Black,sans-serif" letter-spacing="4" opacity="0.7">FINAL FLASH — SSJB</text>
</svg>