<svg viewBox="0 0 700 480" xmlns="http://www.w3.org/2000/svg">
  <defs>
    <radialGradient id="ffbg" cx="25%" cy="60%" r="80%">
      <stop offset="0%" stop-color="#1a1200" stop-opacity="0.95"/>
      <stop offset="100%" stop-color="#000"/>
    </radialGradient>
    <linearGradient id="ffbeam_ssj2" x1="0" y1="0" x2="1" y2="0">
      <stop offset="0%" stop-color="#FFFFFF"/>
      <stop offset="75%" stop-color="#FFFFFF" stop-opacity="0.5"/>
      <stop offset="100%" stop-color="#FFFFFF" stop-opacity="0"/>
    </linearGradient>
  </defs>
  <rect width="700" height="480" fill="url(#ffbg)"/>

  <!-- Ground shockwave -->
  <ellipse cx="170" cy="462" rx="148" ry="16" fill="#FFE840" opacity="0.18"/>
  <ellipse cx="170" cy="462" rx="100" ry="10" fill="#FFE840" opacity="0.3"/>

  <!-- Aura -->
  <ellipse cx="170" cy="250" rx="145" ry="230" fill="#FFE840" opacity="0.1"/>
  <path d="M130,170 Q122,140 130,32 Q138,-46 130,-124Z" fill="#FFE840" opacity="0.4"/><path d="M150,170 Q142,140 150,41 Q158,-28 150,-98Z" fill="#FFE840" opacity="0.7"/><path d="M170,170 Q162,140 170,24 Q178,-63 170,-150Z" fill="#FFE840" opacity="0.4"/><path d="M190,170 Q182,140 190,45 Q198,-20 190,-85Z" fill="#FFE840" opacity="0.7"/><path d="M210,170 Q202,140 210,28 Q218,-54 210,-137Z" fill="#FFE840" opacity="0.4"/><path d="M110,170 Q102,140 110,37 Q118,-37 110,-111Z" fill="#FFE840" opacity="0.7"/><path d="M230,170 Q222,140 230,19 Q238,-72 230,-163Z" fill="#FFE840" opacity="0.4"/><path d="M155,160 Q150,110 155,-46 Q160,32 155,-7Z" fill="#FFFFFF" opacity="0.6"/><path d="M170,160 Q165,110 170,-46 Q175,32 170,-7Z" fill="#FFFFFF" opacity="0.6"/><path d="M185,160 Q180,110 185,-46 Q190,32 185,-7Z" fill="#FFFFFF" opacity="0.6"/>
  <path d="M90,60 L105,100 L95,108 L115,145" stroke="#FFFFFF" stroke-width="2.5" fill="none" stroke-linecap="round" opacity="0.8"/><path d="M250,70 L238,105 L248,112 L230,150" stroke="#FFFFFF" stroke-width="2" fill="none" stroke-linecap="round" opacity="0.7"/><path d="M75,150 L92,175 L82,180 L100,205" stroke="#FFFFFF" stroke-width="1.5" fill="none" stroke-linecap="round" opacity="0.6"/><path d="M260,140 L245,170 L255,176 L235,200" stroke="#FFFFFF" stroke-width="1.5" fill="none" stroke-linecap="round" opacity="0.6"/>

  <!-- Energy particles -->
  <circle cx="248" cy="212" r="5" fill="#FFFFFF" opacity="0.4"/><circle cx="64" cy="125" r="2" fill="#FFFFFF" opacity="0.5"/><circle cx="275" cy="354" r="2" fill="#FFFFFF" opacity="0.7"/><circle cx="263" cy="52" r="4" fill="#FFFFFF" opacity="0.4"/><circle cx="133" cy="177" r="5" fill="#FFFFFF" opacity="0.4"/><circle cx="106" cy="255" r="5" fill="#FFFFFF" opacity="0.2"/><circle cx="204" cy="297" r="1" fill="#FFFFFF" opacity="0.6"/><circle cx="279" cy="217" r="2" fill="#FFFFFF" opacity="0.7"/><circle cx="292" cy="139" r="1" fill="#FFFFFF" opacity="0.3"/><circle cx="177" cy="157" r="1" fill="#FFFFFF" opacity="0.3"/><circle cx="75" cy="95" r="4" fill="#FFFFFF" opacity="0.7"/><circle cx="80" cy="109" r="5" fill="#FFFFFF" opacity="0.3"/><circle cx="255" cy="437" r="4" fill="#FFFFFF" opacity="0.4"/><circle cx="278" cy="113" r="1" fill="#FFFFFF" opacity="0.4"/><circle cx="59" cy="279" r="2" fill="#FFFFFF" opacity="0.5"/><circle cx="24" cy="68" r="3" fill="#FFFFFF" opacity="0.6"/><circle cx="83" cy="420" r="2" fill="#FFFFFF" opacity="0.6"/><circle cx="176" cy="135" r="5" fill="#FFFFFF" opacity="0.4"/><circle cx="93" cy="224" r="4" fill="#FFFFFF" opacity="0.7"/><circle cx="98" cy="114" r="3" fill="#FFFFFF" opacity="0.3"/><circle cx="269" cy="273" r="2" fill="#FFFFFF" opacity="0.6"/><circle cx="209" cy="122" r="2" fill="#FFFFFF" opacity="0.3"/>

  <!-- Warrior - FINAL FLASH stance: arms crossed then thrust forward -->
  <!-- Legs (wide power stance) -->
  <path d="M145,385 L125,445 L118,470" stroke="#C68642" stroke-width="24" stroke-linecap="round" fill="none"/>
  <path d="M195,382 L218,440 L226,466" stroke="#C68642" stroke-width="24" stroke-linecap="round" fill="none"/>
  <ellipse cx="114" cy="472" rx="21" ry="9" fill="#222"/>
  <ellipse cx="229" cy="469" rx="21" ry="9" fill="#222"/>

  <!-- Shorts/belt -->
  <rect x="132" y="330" width="76" height="58" rx="11" fill="#CC3300"/>
  <rect x="126" y="345" width="88" height="13" rx="5" fill="#333"/>

  <!-- Torso (thrust forward posture) -->
  <rect x="138" y="245" width="64" height="88" rx="13" fill="#FF6600" transform="rotate(-8,170,290)"/>

  <!-- Arms THRUST FORWARD palms out -->
  <path d="M142,258 L112,248 L82,240" stroke="#C68642" stroke-width="19" stroke-linecap="round" fill="none"/>
  <path d="M198,258 L228,248 L258,240" stroke="#C68642" stroke-width="19" stroke-linecap="round" fill="none"/>
  <!-- Palms flat, energy gathering -->
  <rect x="60" y="228" width="26" height="20" rx="6" fill="#C68642"/>
  <rect x="252" y="228" width="26" height="20" rx="6" fill="#C68642"/>
  <!-- Energy crackling at palms -->
  <circle cx="73" cy="238" r="12" fill="#FFE840" opacity="0.6"/>
  <circle cx="265" cy="238" r="12" fill="#FFE840" opacity="0.6"/>
  <circle cx="169" cy="242" r="22" fill="#FFE840" opacity="0.45"/>
  <circle cx="169" cy="242" r="14" fill="#FFFFFF" opacity="0.6"/>
  <circle cx="169" cy="242" r="7" fill="white" opacity="0.8"/>

  <!-- Head -->
  <circle cx="170" cy="180" r="42" fill="#C68642" stroke="#1a1a1a" stroke-width="1.5"/>
  <ellipse cx="158" cy="176" rx="8" ry="6" fill="white"/>
  <circle cx="159" cy="175" r="4.5" fill="#AAFFAA"/>
  <circle cx="160" cy="174" r="2" fill="#111"/>
  <ellipse cx="182" cy="176" rx="8" ry="6" fill="white"/>
  <circle cx="183" cy="175" r="4.5" fill="#AAFFAA"/>
  <circle cx="184" cy="174" r="2" fill="#111"/>
  <path d="M152,164 Q163,158 172,162" stroke="#5a3a1a" stroke-width="3.5" fill="none" stroke-linecap="round" opacity="0.8"/>
  <path d="M168,162 Q178,158 189,162" stroke="#5a3a1a" stroke-width="3.5" fill="none" stroke-linecap="round" opacity="0.8"/>
  <path d="M156,196 Q170,203 184,196" stroke="#5a3a1a" stroke-width="2" fill="none" stroke-linecap="round"/>

  <!-- Stocky Vegeta-style upright hair -->
  <path d="M148,152 Q144,120 150,90 L158,118 L154,140Z" fill="#FFE840"/>
  <path d="M160,148 Q156,110 164,82 L172,112 L168,142Z" fill="#FFE840"/>
  <path d="M172,148 Q172,108 182,80 L188,110 L182,140Z" fill="#FFE840"/>
  <path d="M182,150 Q186,114 194,90 L196,118 L190,142Z" fill="#FFE840"/>
  <path d="M136,160 Q130,130 134,105 L144,128 L140,155Z" fill="#FFE840"/>

  <!-- ══ FINAL FLASH BEAM ══ -->
  <path d="M315,200 L700,165 L700,315 L315,280Z" fill="#FFE840" opacity="0.18"/>
  <path d="M315,210 L700,175 L700,305 L315,270Z" fill="url(#ffbeam_ssj2)" opacity="0.45"/>
  <path d="M315,218 L700,185 L700,295 L315,262Z" fill="url(#ffbeam_ssj2)" opacity="0.65"/>
  <!-- Core -->
  <path d="M315,228 L700,198 L700,282 L315,252Z" fill="#FFFFFF" opacity="0.75"/>
  <path d="M315,232 L700,205 L700,275 L315,248Z" fill="white" opacity="0.35"/>

  <!-- Sparks -->
  <circle cx="318" cy="254" r="3" fill="#FFFFFF" opacity="0.6"/><circle cx="353" cy="248" r="5" fill="#FFFFFF" opacity="0.7"/><circle cx="404" cy="249" r="6" fill="#FFFFFF" opacity="0.6"/><circle cx="446" cy="254" r="3" fill="#FFFFFF" opacity="0.4"/><circle cx="495" cy="242" r="3" fill="#FFFFFF" opacity="0.5"/><circle cx="534" cy="249" r="3" fill="#FFFFFF" opacity="0.5"/><circle cx="588" cy="243" r="3" fill="#FFFFFF" opacity="0.7"/><circle cx="637" cy="249" r="5" fill="#FFFFFF" opacity="0.8"/><circle cx="671" cy="253" r="4" fill="#FFFFFF" opacity="0.9"/>

  <!-- Badge -->
  <rect x="590" y="14" width="98" height="30" rx="8" fill="#FFE840" opacity="0.9"/>
  <text x="639" y="34" text-anchor="middle" font-size="13" font-weight="bold" fill="black" font-family="Arial Black,sans-serif">FINAL FLASH</text>

  <text x="350" y="462" text-anchor="middle" font-size="24" font-weight="bold" fill="#FFE840" font-family="Arial Black,sans-serif" letter-spacing="4" opacity="0.7">FINAL FLASH — SSJ2</text>
</svg>