<svg viewBox="0 0 700 480" xmlns="http://www.w3.org/2000/svg">
  <defs>
    <radialGradient id="kbg_base" cx="25%" cy="60%" r="80%">
      <stop offset="0%" stop-color="#001133" stop-opacity="0.95"/>
      <stop offset="100%" stop-color="#000"/>
    </radialGradient>
    <linearGradient id="kbeam_base" x1="0" y1="0" x2="1" y2="0">
      <stop offset="0%" stop-color="#4488FF"/>
      <stop offset="70%" stop-color="#4488FF" stop-opacity="0.6"/>
      <stop offset="100%" stop-color="#4488FF" stop-opacity="0"/>
    </linearGradient>
    <radialGradient id="kball_base" cx="35%" cy="40%" r="60%">
      <stop offset="0%" stop-color="white"/>
      <stop offset="35%" stop-color="#4488FF"/>
      <stop offset="100%" stop-color="#4488FF" stop-opacity="0.3"/>
    </radialGradient>
  </defs>
  <rect width="700" height="480" fill="url(#kbg_base)"/>

  <!-- Ground crack effect -->
  <ellipse cx="170" cy="460" rx="140" ry="14" fill="#4488FF" opacity="0.2"/>
  <path d="M110,460 L130,440 L90,440 L115,420" stroke="#4488FF" stroke-width="1.5" fill="none" opacity="0.4"/>
  <path d="M190,460 L210,445 L195,430" stroke="#4488FF" stroke-width="1" fill="none" opacity="0.3"/>

  <!-- Aura around warrior -->
  <ellipse cx="170" cy="260" rx="140" ry="220" fill="#4488FF" opacity="0.12"/>
  <path d="M130,180 Q122,150 130,48 Q138,-24 130,-96Z" fill="#4488FF" opacity="0.4"/><path d="M150,180 Q142,150 150,56 Q158,-8 150,-72Z" fill="#4488FF" opacity="0.7"/><path d="M170,180 Q162,150 170,40 Q178,-40 170,-120Z" fill="#4488FF" opacity="0.4"/><path d="M190,180 Q182,150 190,60 Q198,0 190,-60Z" fill="#4488FF" opacity="0.7"/><path d="M210,180 Q202,150 210,44 Q218,-32 210,-108Z" fill="#4488FF" opacity="0.4"/><path d="M110,180 Q102,150 110,52 Q118,-16 110,-84Z" fill="#4488FF" opacity="0.7"/><path d="M230,180 Q222,150 230,36 Q238,-48 230,-132Z" fill="#4488FF" opacity="0.4"/><path d="M155,170 Q150,120 155,-24 Q160,48 155,12Z" fill="#88AAFF" opacity="0.6"/><path d="M170,170 Q165,120 170,-24 Q175,48 170,12Z" fill="#88AAFF" opacity="0.6"/><path d="M185,170 Q180,120 185,-24 Q190,48 185,12Z" fill="#88AAFF" opacity="0.6"/>
  <path d="M90,70 L105,110 L95,118 L115,155" stroke="#88AAFF" stroke-width="2.5" fill="none" stroke-linecap="round" opacity="0.8"/><path d="M250,80 L238,115 L248,122 L230,160" stroke="#88AAFF" stroke-width="2" fill="none" stroke-linecap="round" opacity="0.7"/><path d="M75,160 L92,185 L82,190 L100,215" stroke="#88AAFF" stroke-width="1.5" fill="none" stroke-linecap="round" opacity="0.6"/><path d="M260,150 L245,180 L255,186 L235,210" stroke="#88AAFF" stroke-width="1.5" fill="none" stroke-linecap="round" opacity="0.6"/>

  <!-- Energy particles -->
  <circle cx="93" cy="232" r="1" fill="#88AAFF" opacity="0.5"/><circle cx="316" cy="323" r="2" fill="#88AAFF" opacity="0.6"/><circle cx="90" cy="183" r="1" fill="#88AAFF" opacity="0.3"/><circle cx="141" cy="113" r="2" fill="#88AAFF" opacity="0.4"/><circle cx="268" cy="155" r="1" fill="#88AAFF" opacity="0.2"/><circle cx="228" cy="372" r="2" fill="#88AAFF" opacity="0.4"/><circle cx="224" cy="350" r="3" fill="#88AAFF" opacity="0.6"/><circle cx="76" cy="447" r="1" fill="#88AAFF" opacity="0.5"/><circle cx="166" cy="161" r="1" fill="#88AAFF" opacity="0.2"/><circle cx="208" cy="187" r="4" fill="#88AAFF" opacity="0.6"/><circle cx="101" cy="200" r="1" fill="#88AAFF" opacity="0.3"/><circle cx="207" cy="118" r="4" fill="#88AAFF" opacity="0.2"/><circle cx="65" cy="424" r="1" fill="#88AAFF" opacity="0.6"/><circle cx="190" cy="245" r="5" fill="#88AAFF" opacity="0.6"/><circle cx="128" cy="354" r="5" fill="#88AAFF" opacity="0.5"/><circle cx="293" cy="308" r="5" fill="#88AAFF" opacity="0.2"/><circle cx="284" cy="220" r="4" fill="#88AAFF" opacity="0.2"/><circle cx="200" cy="379" r="1" fill="#88AAFF" opacity="0.4"/><circle cx="169" cy="323" r="5" fill="#88AAFF" opacity="0.5"/><circle cx="92" cy="230" r="1" fill="#88AAFF" opacity="0.4"/><circle cx="175" cy="450" r="5" fill="#88AAFF" opacity="0.4"/><circle cx="260" cy="143" r="1" fill="#88AAFF" opacity="0.3"/><circle cx="91" cy="361" r="3" fill="#88AAFF" opacity="0.4"/><circle cx="231" cy="98" r="4" fill="#88AAFF" opacity="0.2"/><circle cx="154" cy="300" r="1" fill="#88AAFF" opacity="0.4"/>

  <!-- Warrior (side profile, leaning into beam) -->
  <!-- Legs (side stance) -->
  <path d="M148,380 L132,440 L126,468" stroke="#FDBCB4" stroke-width="22" stroke-linecap="round" fill="none"/>
  <path d="M192,376 L206,435 L214,465" stroke="#FDBCB4" stroke-width="22" stroke-linecap="round" fill="none"/>
  <ellipse cx="122" cy="470" rx="20" ry="9" fill="#222"/>
  <ellipse cx="217" cy="468" rx="20" ry="9" fill="#222"/>

  <!-- Shorts -->
  <rect x="136" y="328" width="68" height="54" rx="10" fill="#CC3300"/>
  <!-- Belt -->
  <rect x="130" y="344" width="80" height="12" rx="5" fill="#333"/>

  <!-- Torso leaning forward -->
  <rect x="138" y="248" width="62" height="84" rx="13" fill="#FF6600" transform="rotate(-12,170,290)"/>
  <path d="M162,248 L170,272 L178,248" fill="#CC3300" opacity="0.8" transform="rotate(-12,170,290)"/>

  <!-- Left arm (support) -->
  <path d="M140,262 L108,295 L84,322" stroke="#FDBCB4" stroke-width="17" stroke-linecap="round" fill="none"/>
  <!-- Right arm (power arm angled forward into beam) -->
  <path d="M196,260 L235,252 L285,248" stroke="#FDBCB4" stroke-width="17" stroke-linecap="round" fill="none"/>

  <!-- Hands cupped/pushing -->
  <circle cx="80" cy="325" r="14" fill="#FDBCB4"/>
  <circle cx="290" cy="248" r="15" fill="#FDBCB4"/>
  <!-- Cupped hand effect -->
  <path d="M276,238 Q290,242 295,256 Q285,260 272,256Z" fill="#FDBCB4"/>

  <!-- Head -->
  <circle cx="168" cy="178" r="44" fill="#FDBCB4" stroke="#1a1a1a" stroke-width="1.5"/>
  <!-- Eye (single visible profile) -->
  <ellipse cx="182" cy="174" rx="9" ry="7" fill="white"/>
  <circle cx="183" cy="173" r="5" fill="#3366FF"/>
  <circle cx="184" cy="172" r="2.5" fill="#111"/>
  <ellipse cx="183" cy="173" rx="3.5" ry="2.5" fill="#3366FF" opacity="0.6"/>
  <!-- Brow -->
  <path d="M172,164 Q183,158 193,162" stroke="#5a3a1a" stroke-width="3.5" fill="none" stroke-linecap="round" opacity="0.8"/>
  <!-- Mouth (yelling KAME) -->
  <path d="M165,196 Q175,205 185,198" fill="#333" stroke="#111" stroke-width="1"/>

  <!-- Spiky hair -->
  <path d="M160,146 L164,87 L168,83 L172,87 L172,146Z" fill="#1a1a1a" stroke="#1a1a1a" stroke-width="0.5"/><path d="M164,146 L182,80 L186,76 L190,80 L174,146Z" fill="#1a1a1a" stroke="#1a1a1a" stroke-width="0.5"/><path d="M168,146 L193,78 L197,74 L201,78 L176,146Z" fill="#1a1a1a" stroke="#1a1a1a" stroke-width="0.5"/><path d="M172,146 L214,103 L218,99 L222,103 L178,146Z" fill="#1a1a1a" stroke="#1a1a1a" stroke-width="0.5"/><path d="M176,146 L214,110 L218,106 L222,110 L180,146Z" fill="#1a1a1a" stroke="#1a1a1a" stroke-width="0.5"/><path d="M180,146 L140,72 L144,68 L148,72 L182,146Z" fill="#1a1a1a" stroke="#1a1a1a" stroke-width="0.5"/>

  <!-- ═══ BEAM ═══ -->
  <!-- Charge ball at hands -->
  <circle cx="310" cy="246" r="52" fill="#4488FF" opacity="0.25"/>
  <circle cx="310" cy="246" r="38" fill="#4488FF" opacity="0.4"/>
  <circle cx="310" cy="246" r="26" fill="url(#kball_base)"/>
  <circle cx="300" cy="238" r="10" fill="white" opacity="0.7"/>

  <!-- Beam body -->
  <path d="M348,226 L700,200 L700,292 L348,266Z" fill="url(#kbeam_base)" opacity="0.35"/>
  <path d="M348,232 L700,208 L700,284 L348,260Z" fill="url(#kbeam_base)" opacity="0.55"/>
  <!-- Core bright beam -->
  <path d="M348,240 L700,220 L700,272 L348,252Z" fill="#4488FF" opacity="0.7"/>
  <path d="M348,244 L700,226 L700,266 L348,248Z" fill="white" opacity="0.4"/>

  <!-- Beam edge glow -->
  <path d="M348,228 L700,205 L700,210 L348,233Z" fill="#88AAFF" opacity="0.3"/>
  <path d="M348,262 L700,285 L700,290 L348,267Z" fill="#88AAFF" opacity="0.3"/>

  <!-- Sparks along beam -->
  <circle cx="351" cy="244" r="3" fill="#88AAFF" opacity="0.7"/><circle cx="394" cy="231" r="6" fill="#88AAFF" opacity="0.7"/><circle cx="429" cy="248" r="6" fill="#88AAFF" opacity="0.5"/><circle cx="468" cy="250" r="5" fill="#88AAFF" opacity="0.6"/><circle cx="522" cy="237" r="5" fill="#88AAFF" opacity="0.8"/><circle cx="558" cy="239" r="2" fill="#88AAFF" opacity="0.7"/><circle cx="601" cy="231" r="4" fill="#88AAFF" opacity="0.8"/><circle cx="648" cy="237" r="4" fill="#88AAFF" opacity="0.8"/><circle cx="679" cy="245" r="3" fill="#88AAFF" opacity="0.5"/>

  <!-- Level badge -->
  <rect x="610" y="14" width="76" height="30" rx="8" fill="#4488FF" opacity="0.9"/>
  <text x="648" y="34" text-anchor="middle" font-size="14" font-weight="bold" fill="black" font-family="Arial Black,sans-serif">BASE</text>

  <!-- KAMEHAMEHA label -->
  <text x="350" y="460" text-anchor="middle" font-size="28" font-weight="bold" fill="#4488FF" font-family="Arial Black,sans-serif" letter-spacing="6" opacity="0.7">KAMEHAMEHA</text>
</svg>