<svg viewBox="0 0 420 620" xmlns="http://www.w3.org/2000/svg">
<defs>
<radialGradient id="bg_elite_ssj1" cx="50%" cy="55%" r="60%">
  <stop offset="0%" stop-color="#1a0f00" stop-opacity="0.9"/>
  <stop offset="100%" stop-color="#000000"/>
</radialGradient>
<radialGradient id="aurag_elite_ssj1" cx="50%" cy="60%" r="60%">
  <stop offset="0%" stop-color="#FFD700" stop-opacity="0.8"/>
  <stop offset="70%" stop-color="#FFD700" stop-opacity="0.15"/>
  <stop offset="100%" stop-color="transparent"/>
</radialGradient>
</defs>
<rect width="420" height="620" fill="url(#bg_elite_ssj1)"/>
<ellipse cx="210" cy="600" rx="170" ry="18" fill="#FFD700" opacity="0.12"/>
<ellipse cx="210" cy="600" rx="120" ry="12" fill="#FFD700" opacity="0.22"/>
<ellipse cx="210" cy="600" rx="70" ry="7" fill="#FFD700" opacity="0.4"/>
<circle cx="333" cy="569" r="2" fill="#FFD700" opacity="0.4"/>
<circle cx="161" cy="581" r="2" fill="#FFD700" opacity="0.4"/>
<circle cx="201" cy="552" r="3" fill="#FFD700" opacity="0.4"/>
<circle cx="132" cy="561" r="2" fill="#FFD700" opacity="0.6"/>
<circle cx="277" cy="547" r="3" fill="#FFD700" opacity="0.3"/>
<circle cx="189" cy="592" r="4" fill="#FFD700" opacity="0.5"/>
<circle cx="94" cy="584" r="1" fill="#FFD700" opacity="0.3"/>
<circle cx="231" cy="558" r="1" fill="#FFD700" opacity="0.3"/>
<circle cx="147" cy="552" r="4" fill="#FFD700" opacity="0.6"/>
<circle cx="334" cy="579" r="1" fill="#FFD700" opacity="0.3"/>
<circle cx="283" cy="559" r="2" fill="#FFD700" opacity="0.3"/>
<circle cx="157" cy="587" r="2" fill="#FFD700" opacity="0.3"/>
<ellipse cx="210" cy="350" rx="160" ry="270" fill="url(#aurag_elite_ssj1)"/>
<path d="M170,270 Q162,240 170,150 Q178,90 170,30Z" fill="#FFD700" opacity="0.4"/><path d="M190,270 Q182,240 190,157 Q198,104 190,50Z" fill="#FFD700" opacity="0.7"/><path d="M210,270 Q202,240 210,144 Q218,77 210,10Z" fill="#FFD700" opacity="0.4"/><path d="M230,270 Q222,240 230,160 Q238,110 230,60Z" fill="#FFD700" opacity="0.7"/><path d="M250,270 Q242,240 250,147 Q258,84 250,20Z" fill="#FFD700" opacity="0.4"/><path d="M150,270 Q142,240 150,154 Q158,97 150,40Z" fill="#FFD700" opacity="0.7"/><path d="M270,270 Q262,240 270,140 Q278,70 270,0Z" fill="#FFD700" opacity="0.4"/><path d="M195,260 Q190,210 195,90 Q200,150 195,120Z" fill="#FFFAAA" opacity="0.6"/><path d="M210,260 Q205,210 210,90 Q215,150 210,120Z" fill="#FFFAAA" opacity="0.6"/><path d="M225,260 Q220,210 225,90 Q230,150 225,120Z" fill="#FFFAAA" opacity="0.6"/>
<path d="M130,130 L145,170 L135,178 L155,215" stroke="#FFFAAA" stroke-width="2.5" fill="none" stroke-linecap="round" opacity="0.8"/><path d="M290,140 L278,175 L288,182 L270,220" stroke="#FFFAAA" stroke-width="2" fill="none" stroke-linecap="round" opacity="0.7"/><path d="M115,220 L132,245 L122,250 L140,275" stroke="#FFFAAA" stroke-width="1.5" fill="none" stroke-linecap="round" opacity="0.6"/><path d="M300,210 L285,240 L295,246 L275,270" stroke="#FFFAAA" stroke-width="1.5" fill="none" stroke-linecap="round" opacity="0.6"/>
<circle cx="79" cy="571" r="3" fill="#FFFAAA" opacity="0.4"/>
<circle cx="62" cy="330" r="2" fill="#FFFAAA" opacity="0.4"/>
<circle cx="158" cy="124" r="2" fill="#FFFAAA" opacity="0.2"/>
<circle cx="230" cy="446" r="5" fill="#FFFAAA" opacity="0.5"/>
<circle cx="186" cy="196" r="4" fill="#FFFAAA" opacity="0.7"/>
<circle cx="86" cy="535" r="5" fill="#FFFAAA" opacity="0.8"/>
<circle cx="294" cy="380" r="5" fill="#FFFAAA" opacity="0.2"/>
<circle cx="229" cy="13" r="4" fill="#FFFAAA" opacity="0.7"/>
<circle cx="336" cy="107" r="5" fill="#FFFAAA" opacity="0.3"/>
<circle cx="287" cy="330" r="2" fill="#FFFAAA" opacity="0.4"/>
<circle cx="191" cy="270" r="2" fill="#FFFAAA" opacity="0.3"/>
<circle cx="291" cy="582" r="3" fill="#FFFAAA" opacity="0.7"/>
<circle cx="360" cy="47" r="4" fill="#FFFAAA" opacity="0.6"/>
<circle cx="165" cy="143" r="3" fill="#FFFAAA" opacity="0.4"/>
<circle cx="303" cy="343" r="4" fill="#FFFAAA" opacity="0.5"/>
<circle cx="242" cy="368" r="5" fill="#FFFAAA" opacity="0.6"/>
<circle cx="124" cy="250" r="3" fill="#FFFAAA" opacity="0.3"/>
<circle cx="308" cy="236" r="4" fill="#FFFAAA" opacity="0.4"/>
<circle cx="221" cy="453" r="4" fill="#FFFAAA" opacity="0.2"/>
<circle cx="288" cy="179" r="5" fill="#FFFAAA" opacity="0.3"/>
<path d="M186,430 L172,520 L168,570" stroke="#8D5524" stroke-width="24" stroke-linecap="round" fill="none"/><path d="M234,430 L248,520 L252,570" stroke="#8D5524" stroke-width="24" stroke-linecap="round" fill="none"/><ellipse cx="166" cy="580" rx="22" ry="12" fill="#222"/><rect x="146" y="572" width="42" height="16" rx="6" fill="#111"/><ellipse cx="254" cy="580" rx="22" ry="12" fill="#222"/><rect x="234" y="572" width="42" height="16" rx="6" fill="#111"/><rect x="170" y="398" width="80" height="36" rx="8" fill="#CC3300" opacity="0.9"/><rect x="172" y="390" width="76" height="14" rx="5" fill="#333"/><rect x="200" y="388" width="20" height="18" rx="4" fill="#555"/><rect x="174" y="290" width="72" height="106" rx="14" fill="#FF6600"/><path d="M202,290 L210,320 L218,290" fill="#CC3300" opacity="0.8"/><rect x="174" y="290" width="16" height="80" rx="5" fill="#CC3300" opacity="0.5"/><rect x="230" y="290" width="16" height="80" rx="5" fill="#CC3300" opacity="0.5"/><path d="M174,305 L146,270 L124,242" stroke="#8D5524" stroke-width="20" stroke-linecap="round" fill="none"/><path d="M246,305 L274,270 L296,242" stroke="#8D5524" stroke-width="20" stroke-linecap="round" fill="none"/><circle cx="122" cy="240" r="16" fill="#8D5524"/><rect x="110" y="225" width="24" height="12" rx="4" fill="white" opacity="0.7"/><circle cx="298" cy="240" r="16" fill="#8D5524"/><rect x="286" y="225" width="24" height="12" rx="4" fill="white" opacity="0.7"/>
<path d="M202,158 L206,95 L210,91 L214,95 L214,158Z" fill="#FFD700" stroke="#FFD700" stroke-width="0.5"/><path d="M206,158 L225,87 L229,83 L233,87 L216,158Z" fill="#FFD700" stroke="#FFD700" stroke-width="0.5"/><path d="M210,158 L237,85 L241,81 L245,85 L218,158Z" fill="#FFD700" stroke="#FFD700" stroke-width="0.5"/><path d="M214,158 L260,112 L264,108 L268,112 L220,158Z" fill="#FFD700" stroke="#FFD700" stroke-width="0.5"/><path d="M218,158 L260,120 L264,116 L268,120 L222,158Z" fill="#FFD700" stroke="#FFD700" stroke-width="0.5"/><path d="M222,158 L180,79 L184,75 L188,79 L224,158Z" fill="#FFD700" stroke="#FFD700" stroke-width="0.5"/><path d="M226,158 L170,106 L174,102 L178,106 L226,158Z" fill="#FFD700" stroke="#FFD700" stroke-width="0.5"/>
<rect x="198" y="226" width="24" height="22" rx="6" fill="#8D5524"/><circle cx="210" cy="190" r="44" fill="#8D5524" stroke="#1a1a1a" stroke-width="1.5"/><path d="M182,176 Q196,168 206,174" stroke="#5a3a1a" stroke-width="4" fill="none" stroke-linecap="round" opacity="0.8"/><path d="M238,176 Q224,168 214,174" stroke="#5a3a1a" stroke-width="4" fill="none" stroke-linecap="round" opacity="0.8"/><ellipse cx="194" cy="184" rx="9" ry="7" fill="white"/><circle cx="195" cy="185" r="5" fill="#22CC22"/><circle cx="196" cy="184" r="2" fill="#111"/><ellipse cx="226" cy="184" rx="9" ry="7" fill="white"/><circle cx="225" cy="185" r="5" fill="#22CC22"/><circle cx="226" cy="184" r="2" fill="#111"/><ellipse cx="195" cy="185" rx="4" ry="3" fill="#22CC22" opacity="0.6"/><ellipse cx="225" cy="185" rx="4" ry="3" fill="#22CC22" opacity="0.6"/><line x1="180" y1="172" x2="202" y2="176" stroke="#3a2a1a" stroke-width="2.5" stroke-linecap="round" opacity="0.7"/><line x1="240" y1="172" x2="218" y2="176" stroke="#3a2a1a" stroke-width="2.5" stroke-linecap="round" opacity="0.7"/><path d="M206,194 Q210,200 214,194" stroke="#8B4513" stroke-width="1.5" fill="none" opacity="0.6"/><path d="M196,208 Q210,214 224,208" stroke="#5a3a1a" stroke-width="2" fill="none" stroke-linecap="round"/>
<rect x="330" y="14" width="76" height="30" rx="8" fill="#FFD700" opacity="0.85"/>
<text x="368" y="34" text-anchor="middle" font-size="14" font-weight="bold" fill="black" font-family="Arial Black,sans-serif">SSJ</text>
<text x="210" y="616" text-anchor="middle" font-size="13" fill="#FFD700" font-family="Arial Black,sans-serif" opacity="0.8">ELITE — SUPER SAIYAN</text>
</svg>