<svg viewBox="0 0 420 620" xmlns="http://www.w3.org/2000/svg">
<defs>
<radialGradient id="bg_scarred_ssj_berserker" cx="50%" cy="55%" r="60%">
  <stop offset="0%" stop-color="#001400" stop-opacity="0.9"/>
  <stop offset="100%" stop-color="#000000"/>
</radialGradient>
<radialGradient id="aurag_scarred_ssj_berserker" cx="50%" cy="60%" r="60%">
  <stop offset="0%" stop-color="#44CC00" stop-opacity="0.8"/>
  <stop offset="70%" stop-color="#44CC00" stop-opacity="0.15"/>
  <stop offset="100%" stop-color="transparent"/>
</radialGradient>
</defs>
<rect width="420" height="620" fill="url(#bg_scarred_ssj_berserker)"/>
<ellipse cx="210" cy="600" rx="170" ry="18" fill="#44CC00" opacity="0.12"/>
<ellipse cx="210" cy="600" rx="120" ry="12" fill="#44CC00" opacity="0.22"/>
<ellipse cx="210" cy="600" rx="70" ry="7" fill="#44CC00" opacity="0.4"/>
<circle cx="83" cy="571" r="4" fill="#44CC00" opacity="0.4"/>
<circle cx="151" cy="591" r="2" fill="#44CC00" opacity="0.3"/>
<circle cx="127" cy="544" r="4" fill="#44CC00" opacity="0.3"/>
<circle cx="272" cy="585" r="2" fill="#44CC00" opacity="0.3"/>
<circle cx="331" cy="586" r="3" fill="#44CC00" opacity="0.4"/>
<circle cx="229" cy="577" r="1" fill="#44CC00" opacity="0.3"/>
<circle cx="334" cy="594" r="3" fill="#44CC00" opacity="0.4"/>
<circle cx="216" cy="576" r="3" fill="#44CC00" opacity="0.3"/>
<circle cx="94" cy="550" r="4" fill="#44CC00" opacity="0.3"/>
<circle cx="257" cy="545" r="1" fill="#44CC00" opacity="0.4"/>
<circle cx="248" cy="594" r="3" fill="#44CC00" opacity="0.3"/>
<circle cx="120" cy="581" r="1" fill="#44CC00" opacity="0.2"/>
<ellipse cx="210" cy="350" rx="160" ry="270" fill="url(#aurag_scarred_ssj_berserker)"/>
<path d="M170,270 Q162,240 170,150 Q178,90 170,30Z" fill="#44CC00" opacity="0.4"/><path d="M190,270 Q182,240 190,157 Q198,104 190,50Z" fill="#44CC00" opacity="0.7"/><path d="M210,270 Q202,240 210,144 Q218,77 210,10Z" fill="#44CC00" opacity="0.4"/><path d="M230,270 Q222,240 230,160 Q238,110 230,60Z" fill="#44CC00" opacity="0.7"/><path d="M250,270 Q242,240 250,147 Q258,84 250,20Z" fill="#44CC00" opacity="0.4"/><path d="M150,270 Q142,240 150,154 Q158,97 150,40Z" fill="#44CC00" opacity="0.7"/><path d="M270,270 Q262,240 270,140 Q278,70 270,0Z" fill="#44CC00" opacity="0.4"/><path d="M195,260 Q190,210 195,90 Q200,150 195,120Z" fill="#CCFF66" opacity="0.6"/><path d="M210,260 Q205,210 210,90 Q215,150 210,120Z" fill="#CCFF66" opacity="0.6"/><path d="M225,260 Q220,210 225,90 Q230,150 225,120Z" fill="#CCFF66" opacity="0.6"/>
<path d="M130,130 L145,170 L135,178 L155,215" stroke="#CCFF66" stroke-width="2.5" fill="none" stroke-linecap="round" opacity="0.8"/><path d="M290,140 L278,175 L288,182 L270,220" stroke="#CCFF66" stroke-width="2" fill="none" stroke-linecap="round" opacity="0.7"/><path d="M115,220 L132,245 L122,250 L140,275" stroke="#CCFF66" stroke-width="1.5" fill="none" stroke-linecap="round" opacity="0.6"/><path d="M300,210 L285,240 L295,246 L275,270" stroke="#CCFF66" stroke-width="1.5" fill="none" stroke-linecap="round" opacity="0.6"/>
<circle cx="351" cy="155" r="3" fill="#CCFF66" opacity="0.5"/>
<circle cx="308" cy="4" r="1" fill="#CCFF66" opacity="0.3"/>
<circle cx="278" cy="588" r="4" fill="#CCFF66" opacity="0.4"/>
<circle cx="160" cy="448" r="5" fill="#CCFF66" opacity="0.5"/>
<circle cx="286" cy="358" r="5" fill="#CCFF66" opacity="0.6"/>
<circle cx="163" cy="407" r="2" fill="#CCFF66" opacity="0.2"/>
<circle cx="78" cy="361" r="5" fill="#CCFF66" opacity="0.5"/>
<circle cx="286" cy="318" r="2" fill="#CCFF66" opacity="0.6"/>
<circle cx="98" cy="370" r="5" fill="#CCFF66" opacity="0.7"/>
<circle cx="73" cy="177" r="4" fill="#CCFF66" opacity="0.3"/>
<circle cx="99" cy="311" r="4" fill="#CCFF66" opacity="0.5"/>
<circle cx="331" cy="172" r="1" fill="#CCFF66" opacity="0.5"/>
<circle cx="130" cy="195" r="5" fill="#CCFF66" opacity="0.6"/>
<circle cx="216" cy="432" r="3" fill="#CCFF66" opacity="0.3"/>
<circle cx="158" cy="214" r="3" fill="#CCFF66" opacity="0.4"/>
<circle cx="166" cy="523" r="5" fill="#CCFF66" opacity="0.2"/>
<circle cx="299" cy="354" r="1" fill="#CCFF66" opacity="0.3"/>
<circle cx="165" cy="348" r="2" fill="#CCFF66" opacity="0.6"/>
<circle cx="335" cy="421" r="4" fill="#CCFF66" opacity="0.6"/>
<circle cx="354" cy="391" r="5" fill="#CCFF66" opacity="0.8"/>
<path d="M192,430 L178,520 L174,570" stroke="#C68642" stroke-width="24" stroke-linecap="round" fill="none"/><path d="M228,430 L242,520 L246,570" stroke="#C68642" stroke-width="24" stroke-linecap="round" fill="none"/><ellipse cx="172" cy="580" rx="22" ry="12" fill="#222"/><rect x="152" y="572" width="42" height="16" rx="6" fill="#111"/><ellipse cx="248" cy="580" rx="22" ry="12" fill="#222"/><rect x="228" y="572" width="42" height="16" rx="6" fill="#111"/><rect x="178" y="398" width="64" height="36" rx="8" fill="#002200" opacity="0.9"/><rect x="180" y="390" width="60" height="14" rx="5" fill="#333"/><rect x="200" y="388" width="20" height="18" rx="4" fill="#555"/><rect x="182" y="290" width="56" height="106" rx="14" fill="#004400"/><path d="M202,290 L210,320 L218,290" fill="#002200" opacity="0.8"/><rect x="182" y="290" width="16" height="80" rx="5" fill="#002200" opacity="0.5"/><rect x="222" y="290" width="16" height="80" rx="5" fill="#002200" opacity="0.5"/><path d="M182,305 L154,270 L132,242" stroke="#C68642" stroke-width="20" stroke-linecap="round" fill="none"/><path d="M238,305 L266,270 L288,242" stroke="#C68642" stroke-width="20" stroke-linecap="round" fill="none"/><circle cx="130" cy="240" r="16" fill="#C68642"/><rect x="118" y="225" width="24" height="12" rx="4" fill="white" opacity="0.7"/><circle cx="290" cy="240" r="16" fill="#C68642"/><rect x="278" y="225" width="24" height="12" rx="4" fill="white" opacity="0.7"/><line x1="202" y1="210" x2="214" y2="240" stroke="#AA2200" stroke-width="2.5" opacity="0.8"/>
<path d="M202,158 L196,96 L200,92 L204,96 L214,158Z" fill="#88FF00" stroke="#88FF00" stroke-width="0.5"/><path d="M206,158 L219,86 L223,82 L227,86 L216,158Z" fill="#88FF00" stroke="#88FF00" stroke-width="0.5"/><path d="M210,158 L237,85 L241,81 L245,85 L218,158Z" fill="#88FF00" stroke="#88FF00" stroke-width="0.5"/><path d="M214,158 L260,112 L264,108 L268,112 L220,158Z" fill="#88FF00" stroke="#88FF00" stroke-width="0.5"/><path d="M218,158 L260,120 L264,116 L268,120 L222,158Z" fill="#88FF00" stroke="#88FF00" stroke-width="0.5"/><path d="M222,158 L174,82 L178,78 L182,82 L224,158Z" fill="#88FF00" stroke="#88FF00" stroke-width="0.5"/><path d="M226,158 L166,109 L170,105 L174,109 L226,158Z" fill="#88FF00" stroke="#88FF00" stroke-width="0.5"/>
<rect x="198" y="226" width="24" height="22" rx="6" fill="#C68642"/><circle cx="210" cy="190" r="44" fill="#C68642" stroke="#1a1a1a" stroke-width="1.5"/><path d="M182,176 Q196,168 206,174" stroke="#5a3a1a" stroke-width="4" fill="none" stroke-linecap="round" opacity="0.8"/><path d="M238,176 Q224,168 214,174" stroke="#5a3a1a" stroke-width="4" fill="none" stroke-linecap="round" opacity="0.8"/><ellipse cx="194" cy="184" rx="9" ry="7" fill="white"/><circle cx="195" cy="185" r="5" fill="#FF0000"/><circle cx="196" cy="184" r="2" fill="#111"/><ellipse cx="226" cy="184" rx="9" ry="7" fill="white"/><circle cx="225" cy="185" r="5" fill="#FF0000"/><circle cx="226" cy="184" r="2" fill="#111"/><ellipse cx="195" cy="185" rx="4" ry="3" fill="#FF0000" opacity="0.6"/><ellipse cx="225" cy="185" rx="4" ry="3" fill="#FF0000" opacity="0.6"/><line x1="180" y1="172" x2="202" y2="176" stroke="#3a2a1a" stroke-width="2.5" stroke-linecap="round" opacity="0.7"/><line x1="240" y1="172" x2="218" y2="176" stroke="#3a2a1a" stroke-width="2.5" stroke-linecap="round" opacity="0.7"/><path d="M206,194 Q210,200 214,194" stroke="#8B4513" stroke-width="1.5" fill="none" opacity="0.6"/><path d="M196,208 Q210,214 224,208" stroke="#5a3a1a" stroke-width="2" fill="none" stroke-linecap="round"/><line x1="216" y1="168" x2="228" y2="200" stroke="#AA2200" stroke-width="2" opacity="0.9"/>
<rect x="330" y="14" width="76" height="30" rx="8" fill="#44CC00" opacity="0.85"/>
<text x="368" y="34" text-anchor="middle" font-size="14" font-weight="bold" fill="black" font-family="Arial Black,sans-serif">BSRK</text>
<text x="210" y="616" text-anchor="middle" font-size="13" fill="#44CC00" font-family="Arial Black,sans-serif" opacity="0.8">SCARRED — BERSERKER</text>
</svg>