<svg viewBox="0 0 420 620" xmlns="http://www.w3.org/2000/svg">
<defs>
<radialGradient id="bg_kakarot_ssj_god" cx="50%" cy="55%" r="60%">
  <stop offset="0%" stop-color="#1a0000" stop-opacity="0.9"/>
  <stop offset="100%" stop-color="#000000"/>
</radialGradient>
<radialGradient id="aurag_kakarot_ssj_god" cx="50%" cy="60%" r="60%">
  <stop offset="0%" stop-color="#FF2222" stop-opacity="0.8"/>
  <stop offset="70%" stop-color="#FF2222" stop-opacity="0.15"/>
  <stop offset="100%" stop-color="transparent"/>
</radialGradient>
</defs>
<rect width="420" height="620" fill="url(#bg_kakarot_ssj_god)"/>
<ellipse cx="210" cy="600" rx="170" ry="18" fill="#FF2222" opacity="0.12"/>
<ellipse cx="210" cy="600" rx="120" ry="12" fill="#FF2222" opacity="0.22"/>
<ellipse cx="210" cy="600" rx="70" ry="7" fill="#FF2222" opacity="0.4"/>
<circle cx="274" cy="569" r="4" fill="#FF2222" opacity="0.4"/>
<circle cx="243" cy="579" r="1" fill="#FF2222" opacity="0.4"/>
<circle cx="326" cy="558" r="4" fill="#FF2222" opacity="0.5"/>
<circle cx="275" cy="590" r="3" fill="#FF2222" opacity="0.4"/>
<circle cx="297" cy="568" r="4" fill="#FF2222" opacity="0.5"/>
<circle cx="266" cy="581" r="4" fill="#FF2222" opacity="0.5"/>
<circle cx="264" cy="557" r="3" fill="#FF2222" opacity="0.4"/>
<circle cx="301" cy="543" r="3" fill="#FF2222" opacity="0.4"/>
<circle cx="314" cy="581" r="1" fill="#FF2222" opacity="0.5"/>
<circle cx="236" cy="563" r="1" fill="#FF2222" opacity="0.6"/>
<circle cx="103" cy="559" r="4" fill="#FF2222" opacity="0.5"/>
<circle cx="217" cy="575" r="2" fill="#FF2222" opacity="0.2"/>
<ellipse cx="210" cy="350" rx="160" ry="270" fill="url(#aurag_kakarot_ssj_god)"/>
<path d="M170,270 Q162,240 170,150 Q178,90 170,30Z" fill="#FF2222" opacity="0.4"/><path d="M190,270 Q182,240 190,157 Q198,104 190,50Z" fill="#FF2222" opacity="0.7"/><path d="M210,270 Q202,240 210,144 Q218,77 210,10Z" fill="#FF2222" opacity="0.4"/><path d="M230,270 Q222,240 230,160 Q238,110 230,60Z" fill="#FF2222" opacity="0.7"/><path d="M250,270 Q242,240 250,147 Q258,84 250,20Z" fill="#FF2222" opacity="0.4"/><path d="M150,270 Q142,240 150,154 Q158,97 150,40Z" fill="#FF2222" opacity="0.7"/><path d="M270,270 Q262,240 270,140 Q278,70 270,0Z" fill="#FF2222" opacity="0.4"/><path d="M195,260 Q190,210 195,90 Q200,150 195,120Z" fill="#FFAAAA" opacity="0.6"/><path d="M210,260 Q205,210 210,90 Q215,150 210,120Z" fill="#FFAAAA" opacity="0.6"/><path d="M225,260 Q220,210 225,90 Q230,150 225,120Z" fill="#FFAAAA" opacity="0.6"/>
<circle cx="160" cy="177" r="4" fill="#FFAAAA" opacity="0.8"/>
<circle cx="330" cy="246" r="4" fill="#FFAAAA" opacity="0.8"/>
<circle cx="303" cy="160" r="2" fill="#FFAAAA" opacity="0.7"/>
<circle cx="351" cy="503" r="5" fill="#FFAAAA" opacity="0.7"/>
<circle cx="347" cy="30" r="2" fill="#FFAAAA" opacity="0.6"/>
<circle cx="201" cy="66" r="4" fill="#FFAAAA" opacity="0.2"/>
<circle cx="169" cy="562" r="5" fill="#FFAAAA" opacity="0.4"/>
<circle cx="167" cy="306" r="1" fill="#FFAAAA" opacity="0.3"/>
<circle cx="97" cy="512" r="2" fill="#FFAAAA" opacity="0.7"/>
<circle cx="360" cy="453" r="2" fill="#FFAAAA" opacity="0.6"/>
<circle cx="142" cy="477" r="3" fill="#FFAAAA" opacity="0.3"/>
<circle cx="228" cy="346" r="4" fill="#FFAAAA" opacity="0.5"/>
<circle cx="89" cy="445" r="2" fill="#FFAAAA" opacity="0.3"/>
<circle cx="131" cy="76" r="4" fill="#FFAAAA" opacity="0.4"/>
<circle cx="311" cy="382" r="3" fill="#FFAAAA" opacity="0.5"/>
<circle cx="118" cy="295" r="2" fill="#FFAAAA" opacity="0.7"/>
<circle cx="353" cy="285" r="2" fill="#FFAAAA" opacity="0.6"/>
<circle cx="116" cy="522" r="1" fill="#FFAAAA" opacity="0.7"/>
<circle cx="116" cy="170" r="4" fill="#FFAAAA" opacity="0.5"/>
<circle cx="96" cy="378" r="1" fill="#FFAAAA" opacity="0.6"/>
<path d="M192,430 L178,520 L174,570" stroke="#FDBCB4" stroke-width="24" stroke-linecap="round" fill="none"/><path d="M228,430 L242,520 L246,570" stroke="#FDBCB4" stroke-width="24" stroke-linecap="round" fill="none"/><ellipse cx="172" cy="580" rx="22" ry="12" fill="#222"/><rect x="152" y="572" width="42" height="16" rx="6" fill="#111"/><ellipse cx="248" cy="580" rx="22" ry="12" fill="#222"/><rect x="228" y="572" width="42" height="16" rx="6" fill="#111"/><rect x="178" y="398" width="64" height="36" rx="8" fill="#880000" opacity="0.9"/><rect x="180" y="390" width="60" height="14" rx="5" fill="#333"/><rect x="200" y="388" width="20" height="18" rx="4" fill="#555"/><rect x="182" y="290" width="56" height="106" rx="14" fill="#CC0000"/><path d="M202,290 L210,320 L218,290" fill="#880000" opacity="0.8"/><rect x="182" y="290" width="16" height="80" rx="5" fill="#880000" opacity="0.5"/><rect x="222" y="290" width="16" height="80" rx="5" fill="#880000" opacity="0.5"/><path d="M182,305 L154,270 L132,242" stroke="#FDBCB4" stroke-width="20" stroke-linecap="round" fill="none"/><path d="M238,305 L266,270 L288,242" stroke="#FDBCB4" stroke-width="20" stroke-linecap="round" fill="none"/><circle cx="130" cy="240" r="16" fill="#FDBCB4"/><rect x="118" y="225" width="24" height="12" rx="4" fill="white" opacity="0.7"/><circle cx="290" cy="240" r="16" fill="#FDBCB4"/><rect x="278" y="225" width="24" height="12" rx="4" fill="white" opacity="0.7"/>
<path d="M202,158 L206,95 L210,91 L214,95 L214,158Z" fill="#FF3333" stroke="#FF3333" stroke-width="0.5"/><path d="M206,158 L225,87 L229,83 L233,87 L216,158Z" fill="#FF3333" stroke="#FF3333" stroke-width="0.5"/><path d="M210,158 L237,85 L241,81 L245,85 L218,158Z" fill="#FF3333" stroke="#FF3333" stroke-width="0.5"/><path d="M214,158 L260,112 L264,108 L268,112 L220,158Z" fill="#FF3333" stroke="#FF3333" stroke-width="0.5"/><path d="M218,158 L260,120 L264,116 L268,120 L222,158Z" fill="#FF3333" stroke="#FF3333" stroke-width="0.5"/><path d="M222,158 L180,79 L184,75 L188,79 L224,158Z" fill="#FF3333" stroke="#FF3333" stroke-width="0.5"/><path d="M226,158 L170,106 L174,102 L178,106 L226,158Z" fill="#FF3333" stroke="#FF3333" stroke-width="0.5"/>
<rect x="198" y="226" width="24" height="22" rx="6" fill="#FDBCB4"/><circle cx="210" cy="190" r="44" fill="#FDBCB4" stroke="#1a1a1a" stroke-width="1.5"/><path d="M182,176 Q196,168 206,174" stroke="#5a3a1a" stroke-width="4" fill="none" stroke-linecap="round" opacity="0.8"/><path d="M238,176 Q224,168 214,174" stroke="#5a3a1a" stroke-width="4" fill="none" stroke-linecap="round" opacity="0.8"/><ellipse cx="194" cy="184" rx="9" ry="7" fill="white"/><circle cx="195" cy="185" r="5" fill="#FF4444"/><circle cx="196" cy="184" r="2" fill="#111"/><ellipse cx="226" cy="184" rx="9" ry="7" fill="white"/><circle cx="225" cy="185" r="5" fill="#FF4444"/><circle cx="226" cy="184" r="2" fill="#111"/><ellipse cx="195" cy="185" rx="4" ry="3" fill="#FF4444" opacity="0.6"/><ellipse cx="225" cy="185" rx="4" ry="3" fill="#FF4444" opacity="0.6"/><line x1="180" y1="172" x2="202" y2="176" stroke="#3a2a1a" stroke-width="2.5" stroke-linecap="round" opacity="0.7"/><line x1="240" y1="172" x2="218" y2="176" stroke="#3a2a1a" stroke-width="2.5" stroke-linecap="round" opacity="0.7"/><path d="M206,194 Q210,200 214,194" stroke="#8B4513" stroke-width="1.5" fill="none" opacity="0.6"/><path d="M196,208 Q210,214 224,208" stroke="#5a3a1a" stroke-width="2" fill="none" stroke-linecap="round"/>
<rect x="330" y="14" width="76" height="30" rx="8" fill="#FF2222" opacity="0.85"/>
<text x="368" y="34" text-anchor="middle" font-size="14" font-weight="bold" fill="black" font-family="Arial Black,sans-serif">SSG</text>
<text x="210" y="616" text-anchor="middle" font-size="13" fill="#FF2222" font-family="Arial Black,sans-serif" opacity="0.8">KAKAROT — SUPER SAIYAN GOD</text>
</svg>