<svg viewBox="0 0 420 620" xmlns="http://www.w3.org/2000/svg">
<defs>
<radialGradient id="bg_warrior_f_ultra_mastered" cx="50%" cy="55%" r="60%">
  <stop offset="0%" stop-color="#070710" stop-opacity="0.9"/>
  <stop offset="100%" stop-color="#000000"/>
</radialGradient>
<radialGradient id="aurag_warrior_f_ultra_mastered" cx="50%" cy="60%" r="60%">
  <stop offset="0%" stop-color="#DDDDFF" stop-opacity="0.8"/>
  <stop offset="70%" stop-color="#DDDDFF" stop-opacity="0.15"/>
  <stop offset="100%" stop-color="transparent"/>
</radialGradient>
</defs>
<rect width="420" height="620" fill="url(#bg_warrior_f_ultra_mastered)"/>
<ellipse cx="210" cy="600" rx="170" ry="18" fill="#DDDDFF" opacity="0.12"/>
<ellipse cx="210" cy="600" rx="120" ry="12" fill="#DDDDFF" opacity="0.22"/>
<ellipse cx="210" cy="600" rx="70" ry="7" fill="#DDDDFF" opacity="0.4"/>
<circle cx="205" cy="557" r="2" fill="#DDDDFF" opacity="0.3"/>
<circle cx="349" cy="572" r="2" fill="#DDDDFF" opacity="0.6"/>
<circle cx="237" cy="552" r="1" fill="#DDDDFF" opacity="0.4"/>
<circle cx="109" cy="583" r="3" fill="#DDDDFF" opacity="0.2"/>
<circle cx="149" cy="578" r="3" fill="#DDDDFF" opacity="0.6"/>
<circle cx="251" cy="578" r="3" fill="#DDDDFF" opacity="0.3"/>
<circle cx="114" cy="600" r="1" fill="#DDDDFF" opacity="0.3"/>
<circle cx="212" cy="589" r="3" fill="#DDDDFF" opacity="0.3"/>
<circle cx="155" cy="573" r="3" fill="#DDDDFF" opacity="0.4"/>
<circle cx="330" cy="598" r="1" fill="#DDDDFF" opacity="0.4"/>
<circle cx="190" cy="593" r="4" fill="#DDDDFF" opacity="0.6"/>
<circle cx="244" cy="550" r="1" fill="#DDDDFF" opacity="0.2"/>
<ellipse cx="210" cy="350" rx="160" ry="270" fill="url(#aurag_warrior_f_ultra_mastered)"/>
<path d="M170,270 Q162,240 170,132 Q178,54 170,-24Z" fill="#DDDDFF" opacity="0.4"/><path d="M190,270 Q182,240 190,141 Q198,72 190,2Z" fill="#DDDDFF" opacity="0.7"/><path d="M210,270 Q202,240 210,124 Q218,37 210,-50Z" fill="#DDDDFF" opacity="0.4"/><path d="M230,270 Q222,240 230,145 Q238,80 230,15Z" fill="#DDDDFF" opacity="0.7"/><path d="M250,270 Q242,240 250,128 Q258,46 250,-37Z" fill="#DDDDFF" opacity="0.4"/><path d="M150,270 Q142,240 150,137 Q158,63 150,-11Z" fill="#DDDDFF" opacity="0.7"/><path d="M270,270 Q262,240 270,119 Q278,28 270,-63Z" fill="#DDDDFF" opacity="0.4"/><path d="M195,260 Q190,210 195,54 Q200,132 195,93Z" fill="#FFFFFF" opacity="0.6"/><path d="M210,260 Q205,210 210,54 Q215,132 210,93Z" fill="#FFFFFF" opacity="0.6"/><path d="M225,260 Q220,210 225,54 Q230,132 225,93Z" fill="#FFFFFF" opacity="0.6"/>
<path d="M130,130 L145,170 L135,178 L155,215" stroke="#FFFFFF" stroke-width="2.5" fill="none" stroke-linecap="round" opacity="0.8"/><path d="M290,140 L278,175 L288,182 L270,220" stroke="#FFFFFF" stroke-width="2" fill="none" stroke-linecap="round" opacity="0.7"/><path d="M115,220 L132,245 L122,250 L140,275" stroke="#FFFFFF" stroke-width="1.5" fill="none" stroke-linecap="round" opacity="0.6"/><path d="M300,210 L285,240 L295,246 L275,270" stroke="#FFFFFF" stroke-width="1.5" fill="none" stroke-linecap="round" opacity="0.6"/>
<circle cx="348" cy="584" r="4" fill="#FFFFFF" opacity="0.6"/>
<circle cx="127" cy="398" r="2" fill="#FFFFFF" opacity="0.4"/>
<circle cx="104" cy="532" r="3" fill="#FFFFFF" opacity="0.7"/>
<circle cx="96" cy="441" r="5" fill="#FFFFFF" opacity="0.3"/>
<circle cx="322" cy="204" r="5" fill="#FFFFFF" opacity="0.7"/>
<circle cx="360" cy="102" r="5" fill="#FFFFFF" opacity="0.4"/>
<circle cx="268" cy="539" r="5" fill="#FFFFFF" opacity="0.7"/>
<circle cx="358" cy="376" r="2" fill="#FFFFFF" opacity="0.6"/>
<circle cx="244" cy="406" r="1" fill="#FFFFFF" opacity="0.7"/>
<circle cx="84" cy="218" r="5" fill="#FFFFFF" opacity="0.2"/>
<circle cx="163" cy="403" r="2" fill="#FFFFFF" opacity="0.4"/>
<circle cx="267" cy="-10" r="1" fill="#FFFFFF" opacity="0.8"/>
<circle cx="152" cy="579" r="4" fill="#FFFFFF" opacity="0.4"/>
<circle cx="207" cy="317" r="3" fill="#FFFFFF" opacity="0.3"/>
<circle cx="254" cy="462" r="3" fill="#FFFFFF" opacity="0.3"/>
<circle cx="174" cy="471" r="2" fill="#FFFFFF" opacity="0.8"/>
<circle cx="257" cy="382" r="1" fill="#FFFFFF" opacity="0.6"/>
<circle cx="84" cy="68" r="2" fill="#FFFFFF" opacity="0.5"/>
<circle cx="67" cy="142" r="3" fill="#FFFFFF" opacity="0.3"/>
<circle cx="81" cy="417" r="5" fill="#FFFFFF" opacity="0.3"/>
<path d="M194,430 L180,520 L176,570" stroke="#FDBCB4" stroke-width="24" stroke-linecap="round" fill="none"/><path d="M226,430 L240,520 L244,570" stroke="#FDBCB4" stroke-width="24" stroke-linecap="round" fill="none"/><ellipse cx="174" cy="580" rx="22" ry="12" fill="#222"/><rect x="154" y="572" width="42" height="16" rx="6" fill="#111"/><ellipse cx="246" cy="580" rx="22" ry="12" fill="#222"/><rect x="226" y="572" width="42" height="16" rx="6" fill="#111"/><rect x="182" y="398" width="56" height="36" rx="8" fill="#666688" opacity="0.9"/><rect x="184" y="390" width="52" height="14" rx="5" fill="#333"/><rect x="200" y="388" width="20" height="18" rx="4" fill="#555"/><rect x="186" y="290" width="48" height="106" rx="14" fill="#AAAACC"/><path d="M202,290 L210,320 L218,290" fill="#666688" opacity="0.8"/><rect x="186" y="290" width="16" height="80" rx="5" fill="#666688" opacity="0.5"/><rect x="218" y="290" width="16" height="80" rx="5" fill="#666688" opacity="0.5"/><path d="M186,305 L158,270 L136,242" stroke="#FDBCB4" stroke-width="20" stroke-linecap="round" fill="none"/><path d="M234,305 L262,270 L284,242" stroke="#FDBCB4" stroke-width="20" stroke-linecap="round" fill="none"/><circle cx="134" cy="240" r="16" fill="#FDBCB4"/><rect x="122" y="225" width="24" height="12" rx="4" fill="white" opacity="0.7"/><circle cx="286" cy="240" r="16" fill="#FDBCB4"/><rect x="274" y="225" width="24" height="12" rx="4" fill="white" opacity="0.7"/>
<path d="M202,158 L206,95 L210,91 L214,95 L214,158Z" fill="#FFFFFF" stroke="#FFFFFF" stroke-width="0.5"/><path d="M206,158 L225,87 L229,83 L233,87 L216,158Z" fill="#FFFFFF" stroke="#FFFFFF" stroke-width="0.5"/><path d="M210,158 L237,85 L241,81 L245,85 L218,158Z" fill="#FFFFFF" stroke="#FFFFFF" stroke-width="0.5"/><path d="M214,158 L260,112 L264,108 L268,112 L220,158Z" fill="#FFFFFF" stroke="#FFFFFF" stroke-width="0.5"/><path d="M218,158 L260,120 L264,116 L268,120 L222,158Z" fill="#FFFFFF" stroke="#FFFFFF" stroke-width="0.5"/><path d="M222,158 L180,79 L184,75 L188,79 L224,158Z" fill="#FFFFFF" stroke="#FFFFFF" stroke-width="0.5"/><path d="M226,158 L170,106 L174,102 L178,106 L226,158Z" fill="#FFFFFF" stroke="#FFFFFF" stroke-width="0.5"/>
<rect x="198" y="226" width="24" height="22" rx="6" fill="#FDBCB4"/><circle cx="210" cy="190" r="44" fill="#FDBCB4" stroke="#1a1a1a" stroke-width="1.5"/><path d="M182,176 Q196,168 206,174" stroke="#5a3a1a" stroke-width="4" fill="none" stroke-linecap="round" opacity="0.8"/><path d="M238,176 Q224,168 214,174" stroke="#5a3a1a" stroke-width="4" fill="none" stroke-linecap="round" opacity="0.8"/><ellipse cx="194" cy="184" rx="9" ry="7" fill="white"/><circle cx="195" cy="185" r="5" fill="#CCCCFF"/><circle cx="196" cy="184" r="2" fill="#111"/><ellipse cx="226" cy="184" rx="9" ry="7" fill="white"/><circle cx="225" cy="185" r="5" fill="#CCCCFF"/><circle cx="226" cy="184" r="2" fill="#111"/><ellipse cx="195" cy="185" rx="4" ry="3" fill="#CCCCFF" opacity="0.6"/><ellipse cx="225" cy="185" rx="4" ry="3" fill="#CCCCFF" opacity="0.6"/><line x1="180" y1="172" x2="202" y2="176" stroke="#3a2a1a" stroke-width="2.5" stroke-linecap="round" opacity="0.7"/><line x1="240" y1="172" x2="218" y2="176" stroke="#3a2a1a" stroke-width="2.5" stroke-linecap="round" opacity="0.7"/><path d="M206,194 Q210,200 214,194" stroke="#8B4513" stroke-width="1.5" fill="none" opacity="0.6"/><path d="M196,208 Q210,214 224,208" stroke="#5a3a1a" stroke-width="2" fill="none" stroke-linecap="round"/>
<rect x="330" y="14" width="76" height="30" rx="8" fill="#DDDDFF" opacity="0.85"/>
<text x="368" y="34" text-anchor="middle" font-size="14" font-weight="bold" fill="black" font-family="Arial Black,sans-serif">MUI</text>
<text x="210" y="616" text-anchor="middle" font-size="13" fill="#DDDDFF" font-family="Arial Black,sans-serif" opacity="0.8">WARRIOR F — MASTERED ULTRA INSTINCT</text>
</svg>