<svg viewBox="0 0 420 620" xmlns="http://www.w3.org/2000/svg">
<defs>
<radialGradient id="bg_scarred_ultra" cx="50%" cy="55%" r="60%">
  <stop offset="0%" stop-color="#05050f" stop-opacity="0.9"/>
  <stop offset="100%" stop-color="#000000"/>
</radialGradient>
<radialGradient id="aurag_scarred_ultra" cx="50%" cy="60%" r="60%">
  <stop offset="0%" stop-color="#AAAAFF" stop-opacity="0.8"/>
  <stop offset="70%" stop-color="#AAAAFF" stop-opacity="0.15"/>
  <stop offset="100%" stop-color="transparent"/>
</radialGradient>
</defs>
<rect width="420" height="620" fill="url(#bg_scarred_ultra)"/>
<ellipse cx="210" cy="600" rx="170" ry="18" fill="#AAAAFF" opacity="0.12"/>
<ellipse cx="210" cy="600" rx="120" ry="12" fill="#AAAAFF" opacity="0.22"/>
<ellipse cx="210" cy="600" rx="70" ry="7" fill="#AAAAFF" opacity="0.4"/>
<circle cx="346" cy="573" r="4" fill="#AAAAFF" opacity="0.3"/>
<circle cx="84" cy="571" r="2" fill="#AAAAFF" opacity="0.4"/>
<circle cx="288" cy="563" r="1" fill="#AAAAFF" opacity="0.3"/>
<circle cx="219" cy="591" r="1" fill="#AAAAFF" opacity="0.3"/>
<circle cx="332" cy="560" r="1" fill="#AAAAFF" opacity="0.3"/>
<circle cx="243" cy="573" r="2" fill="#AAAAFF" opacity="0.2"/>
<circle cx="296" cy="546" r="1" fill="#AAAAFF" opacity="0.3"/>
<circle cx="196" cy="568" r="1" fill="#AAAAFF" opacity="0.3"/>
<circle cx="184" cy="562" r="4" fill="#AAAAFF" opacity="0.3"/>
<circle cx="327" cy="554" r="2" fill="#AAAAFF" opacity="0.3"/>
<circle cx="303" cy="586" r="4" fill="#AAAAFF" opacity="0.6"/>
<circle cx="218" cy="586" r="2" fill="#AAAAFF" opacity="0.4"/>
<ellipse cx="210" cy="350" rx="160" ry="270" fill="url(#aurag_scarred_ultra)"/>
<path d="M170,270 Q162,240 170,174 Q178,138 170,102Z" fill="#AAAAFF" opacity="0.4"/><path d="M190,270 Q182,240 190,178 Q198,146 190,114Z" fill="#AAAAFF" opacity="0.7"/><path d="M210,270 Q202,240 210,170 Q218,130 210,90Z" fill="#AAAAFF" opacity="0.4"/><path d="M230,270 Q222,240 230,180 Q238,150 230,120Z" fill="#AAAAFF" opacity="0.7"/><path d="M250,270 Q242,240 250,172 Q258,134 250,96Z" fill="#AAAAFF" opacity="0.4"/><path d="M150,270 Q142,240 150,176 Q158,142 150,108Z" fill="#AAAAFF" opacity="0.7"/><path d="M270,270 Q262,240 270,168 Q278,126 270,84Z" fill="#AAAAFF" opacity="0.4"/><path d="M195,260 Q190,210 195,138 Q200,174 195,156Z" fill="#FFFFFF" opacity="0.6"/><path d="M210,260 Q205,210 210,138 Q215,174 210,156Z" fill="#FFFFFF" opacity="0.6"/><path d="M225,260 Q220,210 225,138 Q230,174 225,156Z" fill="#FFFFFF" opacity="0.6"/>
<path d="M130,130 L145,170 L135,178 L155,215" stroke="#FFFFFF" stroke-width="2.5" fill="none" stroke-linecap="round" opacity="0.8"/><path d="M290,140 L278,175 L288,182 L270,220" stroke="#FFFFFF" stroke-width="2" fill="none" stroke-linecap="round" opacity="0.7"/><path d="M115,220 L132,245 L122,250 L140,275" stroke="#FFFFFF" stroke-width="1.5" fill="none" stroke-linecap="round" opacity="0.6"/><path d="M300,210 L285,240 L295,246 L275,270" stroke="#FFFFFF" stroke-width="1.5" fill="none" stroke-linecap="round" opacity="0.6"/>
<circle cx="143" cy="393" r="4" fill="#FFFFFF" opacity="0.8"/>
<circle cx="210" cy="465" r="3" fill="#FFFFFF" opacity="0.4"/>
<circle cx="103" cy="67" r="4" fill="#FFFFFF" opacity="0.6"/>
<circle cx="159" cy="559" r="4" fill="#FFFFFF" opacity="0.5"/>
<circle cx="87" cy="236" r="2" fill="#FFFFFF" opacity="0.5"/>
<circle cx="186" cy="567" r="4" fill="#FFFFFF" opacity="0.7"/>
<circle cx="307" cy="267" r="2" fill="#FFFFFF" opacity="0.3"/>
<circle cx="162" cy="211" r="4" fill="#FFFFFF" opacity="0.5"/>
<circle cx="62" cy="181" r="3" fill="#FFFFFF" opacity="0.7"/>
<circle cx="342" cy="487" r="5" fill="#FFFFFF" opacity="0.3"/>
<circle cx="188" cy="154" r="3" fill="#FFFFFF" opacity="0.2"/>
<circle cx="202" cy="430" r="4" fill="#FFFFFF" opacity="0.6"/>
<circle cx="90" cy="396" r="4" fill="#FFFFFF" opacity="0.8"/>
<circle cx="197" cy="407" r="2" fill="#FFFFFF" opacity="0.2"/>
<circle cx="309" cy="301" r="1" fill="#FFFFFF" opacity="0.3"/>
<circle cx="358" cy="73" r="4" fill="#FFFFFF" opacity="0.7"/>
<circle cx="165" cy="237" r="3" fill="#FFFFFF" opacity="0.5"/>
<circle cx="349" cy="264" r="4" fill="#FFFFFF" opacity="0.6"/>
<circle cx="349" cy="452" r="4" fill="#FFFFFF" opacity="0.3"/>
<circle cx="295" cy="287" r="2" fill="#FFFFFF" opacity="0.5"/>
<path d="M192,430 L178,520 L174,570" stroke="#C68642" stroke-width="24" stroke-linecap="round" fill="none"/><path d="M228,430 L242,520 L246,570" stroke="#C68642" stroke-width="24" stroke-linecap="round" fill="none"/><ellipse cx="172" cy="580" rx="22" ry="12" fill="#222"/><rect x="152" y="572" width="42" height="16" rx="6" fill="#111"/><ellipse cx="248" cy="580" rx="22" ry="12" fill="#222"/><rect x="228" y="572" width="42" height="16" rx="6" fill="#111"/><rect x="178" y="398" width="64" height="36" rx="8" fill="#555566" opacity="0.9"/><rect x="180" y="390" width="60" height="14" rx="5" fill="#333"/><rect x="200" y="388" width="20" height="18" rx="4" fill="#555"/><rect x="182" y="290" width="56" height="106" rx="14" fill="#888899"/><path d="M202,290 L210,320 L218,290" fill="#555566" opacity="0.8"/><rect x="182" y="290" width="16" height="80" rx="5" fill="#555566" opacity="0.5"/><rect x="222" y="290" width="16" height="80" rx="5" fill="#555566" opacity="0.5"/><path d="M182,305 L154,270 L132,242" stroke="#C68642" stroke-width="20" stroke-linecap="round" fill="none"/><path d="M238,305 L266,270 L288,242" stroke="#C68642" stroke-width="20" stroke-linecap="round" fill="none"/><circle cx="130" cy="240" r="16" fill="#C68642"/><rect x="118" y="225" width="24" height="12" rx="4" fill="white" opacity="0.7"/><circle cx="290" cy="240" r="16" fill="#C68642"/><rect x="278" y="225" width="24" height="12" rx="4" fill="white" opacity="0.7"/><line x1="202" y1="210" x2="214" y2="240" stroke="#AA2200" stroke-width="2.5" opacity="0.8"/>
<path d="M202,158 L206,95 L210,91 L214,95 L214,158Z" fill="#E8E8FF" stroke="#E8E8FF" stroke-width="0.5"/><path d="M206,158 L225,87 L229,83 L233,87 L216,158Z" fill="#E8E8FF" stroke="#E8E8FF" stroke-width="0.5"/><path d="M210,158 L237,85 L241,81 L245,85 L218,158Z" fill="#E8E8FF" stroke="#E8E8FF" stroke-width="0.5"/><path d="M214,158 L260,112 L264,108 L268,112 L220,158Z" fill="#E8E8FF" stroke="#E8E8FF" stroke-width="0.5"/><path d="M218,158 L260,120 L264,116 L268,120 L222,158Z" fill="#E8E8FF" stroke="#E8E8FF" stroke-width="0.5"/><path d="M222,158 L180,79 L184,75 L188,79 L224,158Z" fill="#E8E8FF" stroke="#E8E8FF" stroke-width="0.5"/><path d="M226,158 L170,106 L174,102 L178,106 L226,158Z" fill="#E8E8FF" stroke="#E8E8FF" stroke-width="0.5"/>
<rect x="198" y="226" width="24" height="22" rx="6" fill="#C68642"/><circle cx="210" cy="190" r="44" fill="#C68642" stroke="#1a1a1a" stroke-width="1.5"/><path d="M182,176 Q196,168 206,174" stroke="#5a3a1a" stroke-width="4" fill="none" stroke-linecap="round" opacity="0.8"/><path d="M238,176 Q224,168 214,174" stroke="#5a3a1a" stroke-width="4" fill="none" stroke-linecap="round" opacity="0.8"/><ellipse cx="194" cy="184" rx="9" ry="7" fill="white"/><circle cx="195" cy="185" r="5" fill="#FFFFFF"/><circle cx="196" cy="184" r="2" fill="#111"/><ellipse cx="226" cy="184" rx="9" ry="7" fill="white"/><circle cx="225" cy="185" r="5" fill="#FFFFFF"/><circle cx="226" cy="184" r="2" fill="#111"/><ellipse cx="195" cy="185" rx="4" ry="3" fill="#FFFFFF" opacity="0.6"/><ellipse cx="225" cy="185" rx="4" ry="3" fill="#FFFFFF" opacity="0.6"/><line x1="180" y1="172" x2="202" y2="176" stroke="#3a2a1a" stroke-width="2.5" stroke-linecap="round" opacity="0.7"/><line x1="240" y1="172" x2="218" y2="176" stroke="#3a2a1a" stroke-width="2.5" stroke-linecap="round" opacity="0.7"/><path d="M206,194 Q210,200 214,194" stroke="#8B4513" stroke-width="1.5" fill="none" opacity="0.6"/><path d="M196,208 Q210,214 224,208" stroke="#5a3a1a" stroke-width="2" fill="none" stroke-linecap="round"/><line x1="216" y1="168" x2="228" y2="200" stroke="#AA2200" stroke-width="2" opacity="0.9"/>
<rect x="330" y="14" width="76" height="30" rx="8" fill="#AAAAFF" opacity="0.85"/>
<text x="368" y="34" text-anchor="middle" font-size="14" font-weight="bold" fill="black" font-family="Arial Black,sans-serif">UI</text>
<text x="210" y="616" text-anchor="middle" font-size="13" fill="#AAAAFF" font-family="Arial Black,sans-serif" opacity="0.8">SCARRED — ULTRA INSTINCT</text>
</svg>