<svg viewBox="0 0 420 620" xmlns="http://www.w3.org/2000/svg">
<defs>
<radialGradient id="bg_prince_base" cx="50%" cy="55%" r="60%">
  <stop offset="0%" stop-color="#001133" stop-opacity="0.9"/>
  <stop offset="100%" stop-color="#000000"/>
</radialGradient>
<radialGradient id="aurag_prince_base" cx="50%" cy="60%" r="60%">
  <stop offset="0%" stop-color="#4488FF" stop-opacity="0.8"/>
  <stop offset="70%" stop-color="#4488FF" stop-opacity="0.15"/>
  <stop offset="100%" stop-color="transparent"/>
</radialGradient>
</defs>
<rect width="420" height="620" fill="url(#bg_prince_base)"/>
<ellipse cx="210" cy="600" rx="170" ry="18" fill="#4488FF" opacity="0.12"/>
<ellipse cx="210" cy="600" rx="120" ry="12" fill="#4488FF" opacity="0.22"/>
<ellipse cx="210" cy="600" rx="70" ry="7" fill="#4488FF" opacity="0.4"/>
<circle cx="113" cy="593" r="1" fill="#4488FF" opacity="0.2"/>
<circle cx="280" cy="563" r="4" fill="#4488FF" opacity="0.2"/>
<circle cx="326" cy="564" r="1" fill="#4488FF" opacity="0.6"/>
<circle cx="97" cy="594" r="4" fill="#4488FF" opacity="0.4"/>
<circle cx="94" cy="545" r="4" fill="#4488FF" opacity="0.3"/>
<circle cx="299" cy="546" r="2" fill="#4488FF" opacity="0.5"/>
<circle cx="265" cy="547" r="2" fill="#4488FF" opacity="0.2"/>
<circle cx="295" cy="555" r="1" fill="#4488FF" opacity="0.5"/>
<circle cx="303" cy="565" r="4" fill="#4488FF" opacity="0.3"/>
<circle cx="112" cy="561" r="1" fill="#4488FF" opacity="0.5"/>
<circle cx="325" cy="603" r="4" fill="#4488FF" opacity="0.3"/>
<circle cx="303" cy="546" r="3" fill="#4488FF" opacity="0.6"/>
<ellipse cx="210" cy="350" rx="160" ry="270" fill="url(#aurag_prince_base)"/>
<path d="M170,270 Q162,240 170,174 Q178,138 170,102Z" fill="#4488FF" opacity="0.4"/><path d="M190,270 Q182,240 190,178 Q198,146 190,114Z" fill="#4488FF" opacity="0.7"/><path d="M210,270 Q202,240 210,170 Q218,130 210,90Z" fill="#4488FF" opacity="0.4"/><path d="M230,270 Q222,240 230,180 Q238,150 230,120Z" fill="#4488FF" opacity="0.7"/><path d="M250,270 Q242,240 250,172 Q258,134 250,96Z" fill="#4488FF" opacity="0.4"/><path d="M150,270 Q142,240 150,176 Q158,142 150,108Z" fill="#4488FF" opacity="0.7"/><path d="M270,270 Q262,240 270,168 Q278,126 270,84Z" fill="#4488FF" opacity="0.4"/><path d="M195,260 Q190,210 195,138 Q200,174 195,156Z" fill="#88AAFF" opacity="0.6"/><path d="M210,260 Q205,210 210,138 Q215,174 210,156Z" fill="#88AAFF" opacity="0.6"/><path d="M225,260 Q220,210 225,138 Q230,174 225,156Z" fill="#88AAFF" opacity="0.6"/>
<circle cx="196" cy="197" r="4" fill="#88AAFF" opacity="0.4"/>
<circle cx="219" cy="413" r="2" fill="#88AAFF" opacity="0.5"/>
<circle cx="181" cy="368" r="2" fill="#88AAFF" opacity="0.7"/>
<circle cx="358" cy="507" r="3" fill="#88AAFF" opacity="0.7"/>
<circle cx="311" cy="356" r="1" fill="#88AAFF" opacity="0.7"/>
<circle cx="340" cy="246" r="2" fill="#88AAFF" opacity="0.7"/>
<circle cx="138" cy="324" r="3" fill="#88AAFF" opacity="0.4"/>
<circle cx="173" cy="452" r="1" fill="#88AAFF" opacity="0.5"/>
<circle cx="86" cy="485" r="1" fill="#88AAFF" opacity="0.5"/>
<circle cx="311" cy="410" r="3" fill="#88AAFF" opacity="0.6"/>
<circle cx="183" cy="344" r="3" fill="#88AAFF" opacity="0.6"/>
<circle cx="243" cy="432" r="1" fill="#88AAFF" opacity="0.6"/>
<circle cx="170" cy="176" r="1" fill="#88AAFF" opacity="0.6"/>
<circle cx="335" cy="391" r="4" fill="#88AAFF" opacity="0.2"/>
<circle cx="159" cy="387" r="5" fill="#88AAFF" opacity="0.6"/>
<circle cx="144" cy="43" r="4" fill="#88AAFF" opacity="0.7"/>
<circle cx="215" cy="280" r="3" fill="#88AAFF" opacity="0.5"/>
<circle cx="338" cy="230" r="3" fill="#88AAFF" opacity="0.5"/>
<circle cx="87" cy="366" r="3" fill="#88AAFF" opacity="0.4"/>
<circle cx="259" cy="23" r="2" fill="#88AAFF" opacity="0.6"/>
<path d="M188,430 L174,520 L170,570" stroke="#C68642" stroke-width="24" stroke-linecap="round" fill="none"/><path d="M232,430 L246,520 L250,570" stroke="#C68642" stroke-width="24" stroke-linecap="round" fill="none"/><ellipse cx="168" cy="580" rx="22" ry="12" fill="#222"/><rect x="148" y="572" width="42" height="16" rx="6" fill="#111"/><ellipse cx="252" cy="580" rx="22" ry="12" fill="#222"/><rect x="232" y="572" width="42" height="16" rx="6" fill="#111"/><rect x="173" y="398" width="74" height="36" rx="8" fill="#CC3300" opacity="0.9"/><rect x="175" y="390" width="70" height="14" rx="5" fill="#333"/><rect x="200" y="388" width="20" height="18" rx="4" fill="#555"/><rect x="177" y="290" width="66" height="106" rx="14" fill="#FF6600"/><path d="M202,290 L210,320 L218,290" fill="#CC3300" opacity="0.8"/><rect x="177" y="290" width="16" height="80" rx="5" fill="#CC3300" opacity="0.5"/><rect x="227" y="290" width="16" height="80" rx="5" fill="#CC3300" opacity="0.5"/><path d="M177,305 L149,270 L127,242" stroke="#C68642" stroke-width="20" stroke-linecap="round" fill="none"/><path d="M243,305 L271,270 L293,242" stroke="#C68642" stroke-width="20" stroke-linecap="round" fill="none"/><circle cx="125" cy="240" r="16" fill="#C68642"/><rect x="113" y="225" width="24" height="12" rx="4" fill="white" opacity="0.7"/><circle cx="295" cy="240" r="16" fill="#C68642"/><rect x="283" y="225" width="24" height="12" rx="4" fill="white" opacity="0.7"/>
<path d="M202,158 L206,103 L210,99 L214,103 L214,158Z" fill="#1a1a1a" stroke="#1a1a1a" stroke-width="0.5"/><path d="M206,158 L223,97 L227,93 L231,97 L216,158Z" fill="#1a1a1a" stroke="#1a1a1a" stroke-width="0.5"/><path d="M210,158 L233,95 L237,91 L241,95 L218,158Z" fill="#1a1a1a" stroke="#1a1a1a" stroke-width="0.5"/><path d="M214,158 L252,118 L256,114 L260,118 L220,158Z" fill="#1a1a1a" stroke="#1a1a1a" stroke-width="0.5"/><path d="M218,158 L252,125 L256,121 L260,125 L222,158Z" fill="#1a1a1a" stroke="#1a1a1a" stroke-width="0.5"/><path d="M222,158 L184,90 L188,86 L192,90 L224,158Z" fill="#1a1a1a" stroke="#1a1a1a" stroke-width="0.5"/>
<rect x="198" y="226" width="24" height="22" rx="6" fill="#C68642"/><circle cx="210" cy="190" r="44" fill="#C68642" stroke="#1a1a1a" stroke-width="1.5"/><path d="M182,176 Q196,168 206,174" stroke="#5a3a1a" stroke-width="4" fill="none" stroke-linecap="round" opacity="0.8"/><path d="M238,176 Q224,168 214,174" stroke="#5a3a1a" stroke-width="4" fill="none" stroke-linecap="round" opacity="0.8"/><ellipse cx="194" cy="184" rx="9" ry="7" fill="white"/><circle cx="195" cy="185" r="5" fill="#3366FF"/><circle cx="196" cy="184" r="2" fill="#111"/><ellipse cx="226" cy="184" rx="9" ry="7" fill="white"/><circle cx="225" cy="185" r="5" fill="#3366FF"/><circle cx="226" cy="184" r="2" fill="#111"/><ellipse cx="195" cy="185" rx="4" ry="3" fill="#3366FF" opacity="0.6"/><ellipse cx="225" cy="185" rx="4" ry="3" fill="#3366FF" opacity="0.6"/><line x1="180" y1="172" x2="202" y2="176" stroke="#3a2a1a" stroke-width="2.5" stroke-linecap="round" opacity="0.7"/><line x1="240" y1="172" x2="218" y2="176" stroke="#3a2a1a" stroke-width="2.5" stroke-linecap="round" opacity="0.7"/><path d="M206,194 Q210,200 214,194" stroke="#8B4513" stroke-width="1.5" fill="none" opacity="0.6"/><path d="M196,208 Q210,214 224,208" stroke="#5a3a1a" stroke-width="2" fill="none" stroke-linecap="round"/>
<rect x="330" y="14" width="76" height="30" rx="8" fill="#4488FF" opacity="0.85"/>
<text x="368" y="34" text-anchor="middle" font-size="14" font-weight="bold" fill="black" font-family="Arial Black,sans-serif">BASE</text>
<text x="210" y="616" text-anchor="middle" font-size="13" fill="#4488FF" font-family="Arial Black,sans-serif" opacity="0.8">PRINCE — BASE FORM</text>
</svg>